<svg width="25" height="10" viewBox="0 0 25 10" fill="none" xmlns="http://www.w3.org/2000/svg">
<path d="M4.97824 1.44225C4.65893 1.82011 4.14802 2.11814 3.63711 2.07557C3.57324 1.56466 3.82338 1.02182 4.11609 0.686534C4.4354 0.29803 4.99421 0.0212879 5.44658 0C5.4998 0.532197 5.29224 1.05375 4.97824 1.44225ZM5.44126 2.17669C4.7015 2.13411 4.06819 2.59712 3.71694 2.59712C3.36037 2.59712 2.82285 2.19797 2.23743 2.20862C1.47639 2.21926 0.768564 2.65034 0.38006 3.33688C-0.418235 4.70995 0.172504 6.74294 0.94419 7.86055C1.32205 8.41404 1.77442 9.02074 2.37048 8.99946C2.93461 8.97817 3.15813 8.63224 3.83934 8.63224C4.52588 8.63224 4.72279 8.99946 5.31885 8.98881C5.9362 8.97817 6.3247 8.43533 6.70256 7.88184C7.13364 7.25385 7.30927 6.64182 7.31991 6.60989C7.30927 6.59925 6.12779 6.14688 6.11715 4.78445C6.1065 3.64555 7.04849 3.10271 7.09107 3.07078C6.55887 2.28313 5.72864 2.19797 5.44126 2.17669Z" fill="black"/>
<path d="M9.68417 0.566128V7.64177H10.7825V5.22271H12.3029C13.6917 5.22271 14.6675 4.26961 14.6675 2.88988C14.6675 1.51015 13.7099 0.566128 12.3392 0.566128H9.68417ZM10.7825 1.492H12.0488C13.0019 1.492 13.5465 2.00032 13.5465 2.89442C13.5465 3.78852 13.0019 4.30138 12.0442 4.30138H10.7825V1.492ZM16.6736 7.69624C17.3634 7.69624 18.0034 7.34676 18.2939 6.79306H18.3165V7.64177H19.3332V4.11983C19.3332 3.09865 18.5162 2.44056 17.2591 2.44056C16.0926 2.44056 15.2303 3.10773 15.1985 4.02452H16.188C16.2696 3.58882 16.6736 3.30289 17.2273 3.30289C17.899 3.30289 18.2757 3.61605 18.2757 4.19245V4.58277L16.9051 4.66446C15.6297 4.74162 14.9398 5.26356 14.9398 6.17127C14.9398 7.08806 15.6524 7.69624 16.6736 7.69624ZM16.9686 6.8566C16.3831 6.8566 16.011 6.57521 16.011 6.14404C16.011 5.69926 16.3695 5.44056 17.0548 5.39971L18.2757 5.32256V5.72195C18.2757 6.38459 17.7129 6.8566 16.9686 6.8566ZM20.6902 9.56613C21.7613 9.56613 22.2651 9.15766 22.7054 7.91862L24.6342 2.50864H23.5178L22.2243 6.68867H22.2016L20.9081 2.50864H19.7598L21.6206 7.65993L21.5208 7.97309C21.3529 8.5041 21.0805 8.70834 20.5949 8.70834C20.5087 8.70834 20.3408 8.69926 20.2727 8.69018V9.5389C20.3362 9.55705 20.6085 9.56613 20.6902 9.56613Z" fill="black"/>
</svg>
