<?xml version="1.0" encoding="utf-8"?>
<!-- Generator: Adobe Illustrator 24.1.0, SVG Export Plug-In . SVG Version: 6.00 Build 0)  -->
<svg version="1.1" id="圖層_1" xmlns="http://www.w3.org/2000/svg" xmlns:xlink="http://www.w3.org/1999/xlink" x="0px" y="0px"
	 viewBox="0 0 25 10" style="enable-background:new 0 0 25 10;" xml:space="preserve">
<style type="text/css">
	.st0{fill:#FFFFFF;}
</style>
<path class="st0" d="M5,1.4C4.7,1.8,4.1,2.1,3.6,2.1C3.6,1.6,3.8,1,4.1,0.7C4.4,0.3,5,0,5.4,0C5.5,0.5,5.3,1.1,5,1.4z M5.4,2.2
	c-0.7,0-1.4,0.4-1.7,0.4c-0.4,0-0.9-0.4-1.5-0.4c-0.8,0-1.5,0.4-1.9,1.1c-0.8,1.4-0.2,3.4,0.6,4.5C1.3,8.4,1.8,9,2.4,9
	c0.6,0,0.8-0.4,1.5-0.4C4.5,8.6,4.7,9,5.3,9c0.6,0,1-0.6,1.4-1.1c0.4-0.6,0.6-1.2,0.6-1.3c0,0-1.2-0.5-1.2-1.8c0-1.1,0.9-1.7,1-1.7
	C6.6,2.3,5.7,2.2,5.4,2.2z"/>
<path class="st0" d="M9.7,0.6v7.1h1.1V5.2h1.5c1.4,0,2.4-1,2.4-2.3s-1-2.3-2.3-2.3H9.7z M10.8,1.5H12c1,0,1.5,0.5,1.5,1.4
	S13,4.3,12,4.3h-1.3V1.5z M16.7,7.7c0.7,0,1.3-0.3,1.6-0.9h0v0.8h1V4.1c0-1-0.8-1.7-2.1-1.7c-1.2,0-2,0.7-2.1,1.6h1
	c0.1-0.4,0.5-0.7,1-0.7c0.7,0,1,0.3,1,0.9v0.4l-1.4,0.1c-1.3,0.1-2,0.6-2,1.5C14.9,7.1,15.7,7.7,16.7,7.7z M17,6.9
	c-0.6,0-1-0.3-1-0.7c0-0.4,0.4-0.7,1-0.7l1.2-0.1v0.4C18.3,6.4,17.7,6.9,17,6.9z M20.7,9.6c1.1,0,1.6-0.4,2-1.6l1.9-5.4h-1.1
	l-1.3,4.2h0l-1.3-4.2h-1.1l1.9,5.2L21.5,8c-0.2,0.5-0.4,0.7-0.9,0.7c-0.1,0-0.3,0-0.3,0v0.8C20.3,9.6,20.6,9.6,20.7,9.6z"/>
</svg>
