<?xml version="1.0" encoding="utf-8"?>
<!-- Generator: Adobe Illustrator 24.0.1, SVG Export Plug-In . SVG Version: 6.00 Build 0)  -->
<svg version="1.1" id="圖層_1" xmlns="http://www.w3.org/2000/svg" xmlns:xlink="http://www.w3.org/1999/xlink" x="0px" y="0px"
	 viewBox="0 0 16 18" style="enable-background:new 0 0 16 18;" xml:space="preserve">
<style type="text/css">
	.st0{fill:#979797;}
</style>
<g>
	<path class="st0" d="M16,16.7V4.1c0-0.2-0.1-0.3-0.2-0.5c0,0,0,0,0,0l-2.4-3.3C13.3,0.1,13,0,12.8,0H3.2C2.9,0,2.7,0.1,2.6,0.3
		L0.2,3.6c0,0-0.1,0.1-0.1,0.1C0,3.9,0,4,0,4.1v12.6c0,0.2,0,0.3,0,0.5c0,0,0,0,0,0.1C0,17.7,0.3,18,0.8,18h14.5
		c0.4,0,0.8-0.3,0.8-0.8c0,0,0,0,0,0C16,17.1,16,17,16,16.7z M3.6,1.6h8.8l1.2,1.6H2.4L3.6,1.6z M1.6,4.9h12.8v10.6
		c0,0.2-0.1,0.4-0.2,0.6c-0.1,0.1-0.3,0.2-0.6,0.2H2.4c-0.2,0-0.4-0.1-0.6-0.2c-0.1-0.1-0.2-0.4-0.2-0.6V4.9z"/>
	<path class="st0" d="M8,11.5c1.1,0,2.1-0.5,2.8-1.2C11.5,9.5,12,8.5,12,7.4c0-0.5-0.4-0.8-0.8-0.8c-0.4,0-0.8,0.4-0.8,0.8
		c0,0.7-0.3,1.3-0.7,1.7C9.3,9.5,8.7,9.8,8,9.8S6.7,9.5,6.3,9.1C5.9,8.7,5.6,8,5.6,7.4c0-0.5-0.4-0.8-0.8-0.8S4,6.9,4,7.4
		c0,1.1,0.4,2.2,1.2,2.9C5.9,11,6.9,11.5,8,11.5z"/>
</g>
</svg>
