<svg width="18" height="18" viewBox="0 0 18 18" fill="none" xmlns="http://www.w3.org/2000/svg">
<path d="M6.75 16.2C6.75 17.1941 5.99449 18 5.0625 18C4.13051 18 3.375 17.1941 3.375 16.2C3.375 15.2059 4.13051 14.4 5.0625 14.4C5.99449 14.4 6.75 15.2059 6.75 16.2Z" fill="#979797"/>
<path d="M18 16.2C18 17.1941 17.2445 18 16.3125 18C15.3805 18 14.625 17.1941 14.625 16.2C14.625 15.2059 15.3805 14.4 16.3125 14.4C17.2445 14.4 18 15.2059 18 16.2Z" fill="#979797"/>
<path d="M18 8.4V1.2H4.5C4.5 0.537262 3.99632 0 3.375 0H0V1.2H2.25L3.09505 8.92601C2.58012 9.36585 2.25 10.0416 2.25 10.8C2.25 12.1256 3.25737 13.2 4.5 13.2H18V12H4.5C3.87868 12 3.375 11.4627 3.375 10.8C3.375 10.7959 3.37525 10.7918 3.37528 10.7877L18 8.4Z" fill="#979797"/>
</svg>
