<svg width="41" height="10" viewBox="0 0 41 10" fill="none" xmlns="http://www.w3.org/2000/svg">
<path d="M4 6.49L2.62 6.88V4.65H3.85V3.96H2.62V1.83H3.94V1.15H0.53V1.83H1.91V3.96H0.65V4.65H1.91V7.07C1.32 7.24 0.78 7.38 0.34 7.49L0.54 8.2C1.51 7.91 2.84 7.52 4.09 7.15L4 6.49ZM5.1 4.89H8.34V5.91H5.1V4.89ZM5.1 3.29H8.34V4.29H5.1V3.29ZM5.1 1.7H8.34V2.7H5.1V1.7ZM8 9.05C7.75 9.05 7.71 9.01 7.71 8.76V6.54H9.07V1.07H4.4V6.54H5.29C5.13 7.83 4.68 8.73 2.92 9.21C3.07 9.35 3.27 9.65 3.34 9.82C5.28 9.22 5.82 8.13 6.02 6.54H7V8.76C7 9.48 7.18 9.69 7.89 9.69H8.86C9.46 9.69 9.65 9.38 9.7 8.16C9.52 8.11 9.22 8 9.08 7.87C9.05 8.9 9.01 9.05 8.78 9.05H8ZM18.17 2.28H14.97V1.49H18.17V2.28ZM18.17 3.6H14.97V2.8H18.17V3.6ZM18.86 0.93H14.29V4.16H18.86V0.93ZM13.44 5.84L12.42 6.3V3.49H13.5V2.79H12.42V0.709999H11.73V2.79H10.56V3.49H11.73V6.62C11.22 6.85 10.75 7.05 10.37 7.21L10.66 7.94C11.5 7.54 12.59 7.01 13.6 6.5L13.44 5.84ZM19.57 5.35V4.72H13.31V5.35H14.71C14.24 6.17 13.52 6.88 12.73 7.35C12.88 7.45 13.14 7.69 13.24 7.81C13.69 7.51 14.14 7.12 14.54 6.67H15.55C15.01 7.56 14.13 8.46 13.3 8.91C13.48 9.03 13.68 9.21 13.79 9.37C14.71 8.79 15.69 7.7 16.22 6.67H17.19C16.78 7.75 16.05 8.83 15.24 9.37C15.42 9.48 15.65 9.65 15.77 9.8C16.63 9.15 17.41 7.86 17.81 6.67H18.59C18.46 8.24 18.31 8.87 18.14 9.05C18.07 9.15 17.98 9.16 17.84 9.16C17.69 9.16 17.36 9.15 16.99 9.12C17.09 9.27 17.16 9.54 17.16 9.72C17.56 9.74 17.93 9.74 18.15 9.73C18.38 9.7 18.56 9.65 18.71 9.48C18.99 9.19 19.15 8.41 19.3 6.35C19.32 6.25 19.33 6.05 19.33 6.05H15.03C15.19 5.83 15.33 5.59 15.46 5.35H19.57ZM22.96 0.7C22.39 2.25 21.44 3.77 20.42 4.74C20.56 4.91 20.79 5.3 20.88 5.47C21.22 5.12 21.57 4.71 21.89 4.26V9.74H22.63V3.11C23.04 2.42 23.39 1.68 23.69 0.93L22.96 0.7ZM29.51 2.85H28.24V0.75H27.49V2.85H23.46V3.59H27.49V8.75C27.49 8.98 27.4 9.04 27.18 9.06C26.94 9.07 26.12 9.07 25.28 9.04C25.39 9.24 25.53 9.58 25.57 9.77C26.65 9.78 27.32 9.77 27.71 9.65C28.08 9.54 28.24 9.31 28.24 8.75V3.59H29.51V2.85ZM26.23 7.06C25.91 6.45 25.25 5.41 24.73 4.64L24.09 4.94C24.6 5.74 25.24 6.81 25.54 7.43L26.23 7.06ZM34.81 4.43H30.88V5.06H34.81L34.82 4.75C34.99 4.87 35.27 5.05 35.4 5.16C35.73 4.61 36 3.91 36.23 3.12H38.65C38.51 3.77 38.33 4.49 38.14 4.96L38.75 5.14C39.02 4.49 39.3 3.45 39.49 2.56L38.99 2.4L38.86 2.43H36.4C36.53 1.89 36.64 1.31 36.72 0.73L35.99 0.64C35.8 2.19 35.44 3.7 34.82 4.68L34.81 4.43ZM32.49 3.07H30.78V3.69H34.93V3.07H33.19V2.21H35.13V1.58H33.19V0.669999H32.49V1.58H30.55V2.21H32.49V3.07ZM31.27 6.81C31.04 7.5 30.71 8.27 30.36 8.81C30.52 8.87 30.8 9.01 30.95 9.09C31.27 8.54 31.64 7.69 31.89 6.97L31.27 6.81ZM35.23 6.47V5.83H30.43V6.47H32.5V9.76H33.2V6.47H35.23ZM33.78 7.03C34.05 7.55 34.36 8.23 34.51 8.64L35.1 8.36C34.95 7.97 34.62 7.3 34.33 6.81L33.78 7.03ZM37.46 3.86H36.75V4.32C36.75 5.68 36.62 7.7 34.84 9.29C35.03 9.4 35.28 9.62 35.41 9.78C36.41 8.87 36.92 7.82 37.18 6.8C37.6 8.12 38.22 9.18 39.17 9.76C39.27 9.57 39.5 9.29 39.66 9.15C38.49 8.51 37.78 7 37.43 5.27C37.45 4.94 37.46 4.62 37.46 4.33V3.86Z" fill="black"/>
</svg>
