<svg width="18" height="7" viewBox="0 0 18 7" fill="none" xmlns="http://www.w3.org/2000/svg">
<path d="M4.23828 4.4209C4.17676 4.94727 3.98193 5.354 3.65381 5.64111C3.32796 5.92594 2.89388 6.06836 2.35156 6.06836C1.76367 6.06836 1.29199 5.85758 0.936523 5.43604C0.583333 5.01449 0.406738 4.45052 0.406738 3.74414V3.26562C0.406738 2.80306 0.48877 2.39632 0.652832 2.04541C0.819173 1.6945 1.05387 1.42562 1.35693 1.23877C1.65999 1.04964 2.0109 0.955078 2.40967 0.955078C2.93831 0.955078 3.36214 1.10319 3.68115 1.39941C4.00016 1.69336 4.18587 2.10124 4.23828 2.62305H3.57861C3.52165 2.22656 3.39746 1.93945 3.20605 1.76172C3.01693 1.58398 2.75146 1.49512 2.40967 1.49512C1.9904 1.49512 1.66113 1.65007 1.42188 1.95996C1.1849 2.26986 1.06641 2.71077 1.06641 3.28271V3.76465C1.06641 4.30469 1.1792 4.73421 1.40479 5.05322C1.63037 5.37223 1.94596 5.53174 2.35156 5.53174C2.71615 5.53174 2.99528 5.44971 3.18896 5.28564C3.38493 5.1193 3.51481 4.83105 3.57861 4.4209H4.23828Z" fill="black"/>
<path d="M7.88525 4.70117H5.80029L5.33203 6H4.65527L6.55566 1.02344H7.12988L9.03369 6H8.36035L7.88525 4.70117ZM5.99854 4.16113H7.69043L6.84277 1.8335L5.99854 4.16113Z" fill="black"/>
<path d="M11.1699 3.78174C10.6071 3.61995 10.1969 3.42171 9.93945 3.18701C9.68424 2.95003 9.55664 2.65837 9.55664 2.31201C9.55664 1.92008 9.71273 1.59652 10.0249 1.34131C10.3394 1.08382 10.7472 0.955078 11.2485 0.955078C11.5903 0.955078 11.8945 1.02116 12.1611 1.15332C12.43 1.28548 12.6374 1.46777 12.7832 1.7002C12.9313 1.93262 13.0054 2.18669 13.0054 2.4624H12.3457C12.3457 2.16162 12.25 1.92578 12.0586 1.75488C11.8672 1.58171 11.5972 1.49512 11.2485 1.49512C10.925 1.49512 10.672 1.56689 10.4897 1.71045C10.3097 1.85173 10.2197 2.04883 10.2197 2.30176C10.2197 2.50456 10.3052 2.6766 10.4761 2.81787C10.6493 2.95687 10.9421 3.08447 11.3545 3.20068C11.7692 3.31689 12.0928 3.44564 12.3252 3.58691C12.5599 3.72591 12.7331 3.88883 12.8447 4.07568C12.9587 4.26253 13.0156 4.48242 13.0156 4.73535C13.0156 5.13867 12.8584 5.46224 12.5439 5.70605C12.2295 5.94759 11.8091 6.06836 11.2827 6.06836C10.9409 6.06836 10.6219 6.00342 10.3257 5.87354C10.0295 5.74137 9.80046 5.56136 9.63867 5.3335C9.47917 5.10563 9.39941 4.84701 9.39941 4.55762H10.0591C10.0591 4.8584 10.1696 5.09652 10.3906 5.27197C10.6139 5.44515 10.9113 5.53174 11.2827 5.53174C11.6291 5.53174 11.8945 5.4611 12.0791 5.31982C12.2637 5.17855 12.356 4.986 12.356 4.74219C12.356 4.49837 12.2705 4.31038 12.0996 4.17822C11.9287 4.04378 11.6188 3.91162 11.1699 3.78174Z" fill="black"/>
<path d="M17.6846 6H17.0249V3.69971H14.5161V6H13.8599V1.02344H14.5161V3.16309H17.0249V1.02344H17.6846V6Z" fill="black"/>
</svg>
