<?xml version="1.0" encoding="utf-8"?>
<!-- Generator: Adobe Illustrator 24.1.0, SVG Export Plug-In . SVG Version: 6.00 Build 0)  -->
<svg version="1.1" id="圖層_1" xmlns="http://www.w3.org/2000/svg" xmlns:xlink="http://www.w3.org/1999/xlink" x="0px" y="0px"
	 viewBox="0 0 18 7" style="enable-background:new 0 0 18 7;" xml:space="preserve">
<style type="text/css">
	.st0{fill:#FFFFFF;}
</style>
<path class="st0" d="M4.2,4.4C4.2,4.9,4,5.4,3.7,5.6C3.3,5.9,2.9,6.1,2.4,6.1c-0.6,0-1.1-0.2-1.4-0.6C0.6,5,0.4,4.5,0.4,3.7V3.3
	c0-0.5,0.1-0.9,0.2-1.2c0.2-0.4,0.4-0.6,0.7-0.8C1.7,1,2,1,2.4,1c0.5,0,1,0.1,1.3,0.4C4,1.7,4.2,2.1,4.2,2.6H3.6
	C3.5,2.2,3.4,1.9,3.2,1.8C3,1.6,2.8,1.5,2.4,1.5C2,1.5,1.7,1.7,1.4,2C1.2,2.3,1.1,2.7,1.1,3.3v0.5c0,0.5,0.1,1,0.3,1.3
	c0.2,0.3,0.5,0.5,0.9,0.5c0.4,0,0.6-0.1,0.8-0.2c0.2-0.2,0.3-0.5,0.4-0.9H4.2z"/>
<path class="st0" d="M7.9,4.7H5.8L5.3,6H4.7l1.9-5h0.6L9,6H8.4L7.9,4.7z M6,4.2h1.7L6.8,1.8L6,4.2z"/>
<path class="st0" d="M11.2,3.8c-0.6-0.2-1-0.4-1.2-0.6C9.7,3,9.6,2.7,9.6,2.3c0-0.4,0.2-0.7,0.5-1C10.3,1.1,10.7,1,11.2,1
	c0.3,0,0.6,0.1,0.9,0.2c0.3,0.1,0.5,0.3,0.6,0.5C12.9,1.9,13,2.2,13,2.5h-0.7c0-0.3-0.1-0.5-0.3-0.7c-0.2-0.2-0.5-0.3-0.8-0.3
	c-0.3,0-0.6,0.1-0.8,0.2c-0.2,0.1-0.3,0.3-0.3,0.6c0,0.2,0.1,0.4,0.3,0.5c0.2,0.1,0.5,0.3,0.9,0.4c0.4,0.1,0.7,0.2,1,0.4
	c0.2,0.1,0.4,0.3,0.5,0.5C13,4.3,13,4.5,13,4.7c0,0.4-0.2,0.7-0.5,1c-0.3,0.2-0.7,0.4-1.3,0.4c-0.3,0-0.7-0.1-1-0.2
	C10,5.7,9.8,5.6,9.6,5.3C9.5,5.1,9.4,4.8,9.4,4.6h0.7c0,0.3,0.1,0.5,0.3,0.7c0.2,0.2,0.5,0.3,0.9,0.3c0.3,0,0.6-0.1,0.8-0.2
	c0.2-0.1,0.3-0.3,0.3-0.6c0-0.2-0.1-0.4-0.3-0.6C11.9,4,11.6,3.9,11.2,3.8z"/>
<path class="st0" d="M17.7,6H17V3.7h-2.5V6h-0.7V1h0.7v2.1H17V1h0.7V6z"/>
</svg>
