<svg width="17" height="20" viewBox="0 0 17 20" fill="none" xmlns="http://www.w3.org/2000/svg">
<path d="M8.17031 3.42571e-07C10.4398 3.42571e-07 12.3689 0.801295 13.9576 2.40389C15.5463 4.00648 16.3406 5.92862 16.3406 8.17031V17.2766C16.3406 18.0143 16.071 18.6525 15.5317 19.1911C14.9925 19.7298 14.3543 19.9994 13.6172 20H8.17031V18.1699H14.5105V17.2766H10.8937V9.99955H14.5105V8.1694C14.5105 6.41066 13.8935 4.91429 12.6594 3.68027C11.4254 2.44625 9.92904 1.82924 8.17031 1.82924C6.41157 1.82924 4.91519 2.44625 3.68118 3.68027C2.44716 4.91429 1.83015 6.41066 1.83015 8.1694V9.99955H5.44687V17.2766H2.72344C1.98569 17.2766 1.3475 17.0069 0.80886 16.4677C0.270225 15.9285 0.000605208 15.2903 0 14.5531V8.17031C0 5.92922 0.794335 4.00708 2.38301 2.40389C3.97168 0.80069 5.90078 -0.000604865 8.17031 3.42571e-07Z" fill="#979797"/>
</svg>
