<?xml version="1.0" encoding="utf-8"?>
<!-- Generator: Adobe Illustrator 24.0.1, SVG Export Plug-In . SVG Version: 6.00 Build 0)  -->
<svg version="1.1" id="圖層_1" xmlns="http://www.w3.org/2000/svg" xmlns:xlink="http://www.w3.org/1999/xlink" x="0px" y="0px"
	 viewBox="0 0 23 16" style="enable-background:new 0 0 23 16;" xml:space="preserve">
<style type="text/css">
	.st0{fill-rule:evenodd;clip-rule:evenodd;fill:#979797;}
</style>
<path class="st0" d="M20.4,13.8c-0.4,0.4-0.8,0.5-1.3,0.5c-0.5,0-0.9-0.2-1.3-0.5c-0.3-0.4-0.5-0.8-0.5-1.3c0-0.5,0.2-0.9,0.5-1.3
	c0.3-0.3,0.8-0.5,1.3-0.5c0.5,0,0.9,0.2,1.3,0.5c0.4,0.3,0.5,0.8,0.5,1.3C20.9,13,20.8,13.4,20.4,13.8z M21.6,10.1
	c-0.7-0.7-1.5-1-2.4-1s-1.7,0.3-2.4,1c-0.7,0.7-1,1.5-1,2.4c0,0.9,0.3,1.7,1,2.4c0.7,0.7,1.5,1,2.4,1s1.7-0.3,2.4-1
	c0.7-0.7,1-1.5,1-2.4C22.6,11.6,22.3,10.8,21.6,10.1z M9.5,2.1H3.8v1.3h5.7V2.1z M7.4,13.8c-0.4,0.3-0.8,0.5-1.3,0.5
	c-0.5,0-0.9-0.2-1.2-0.5c-0.3-0.3-0.5-0.8-0.5-1.2h3.5C7.9,13,7.7,13.4,7.4,13.8z M19.2,6.1V2.3h0c0-0.6-0.2-1.1-0.7-1.6
	c-0.4-0.4-1-0.7-1.6-0.7h-3.4v1.8h3.7V6l-3.5,4.8H9.5V4.6H4.9C3.7,4.6,2.6,5,1.7,5.9c-0.9,0.9-1.3,2-1.3,3.2v3.4h2.3
	c0,0.9,0.3,1.7,1,2.4c0.7,0.7,1.5,1,2.4,1c0.9,0,1.7-0.3,2.4-1c0.7-0.7,1-1.5,1-2.4h4.8L19.2,6.1z M1.7,10.8V8.4
	C2.2,6.8,3.4,6,4.6,6h3.3v4.8H1.7z"/>
</svg>
