<svg width="425" height="85" viewBox="0 0 425 85" fill="none" xmlns="http://www.w3.org/2000/svg">
<path d="M234.06 24.8C233.36 25.5 233.06 26.4 233.06 27.2C233.06 28.1 233.36 28.9 234.06 29.6C234.76 30.3 235.66 30.6 236.46 30.6C237.36 30.6 238.16 30.3 238.86 29.6L249.46 19.3C250.16 18.7 250.46 17.8 250.46 16.8C250.46 15.9 250.06 15 249.46 14.3L238.86 4C238.16 3.4 237.36 3 236.46 3C235.56 3 234.66 3.3 234.06 4C233.46 4.7 233.06 5.5 233.06 6.4C233.06 7.3 233.36 8.2 234.06 8.8L242.16 16.6L234.06 24.8ZM159.26 51.8C159.36 51.8 159.56 51.8 159.66 51.8C168.96 50.6 177.06 47.5 183.66 43.6C190.26 47.9 198.36 51.6 207.26 52.9C207.46 52.9 207.56 52.9 207.76 52.9C209.36 52.9 210.76 51.7 211.06 50.1C211.06 49.9 211.06 49.8 211.06 49.6C211.06 48 209.86 46.6 208.26 46.3C201.46 45.3 195.16 42.8 189.76 39.5L189.86 39.4C197.46 33.6 204.76 27.1 207.36 21.8C207.96 20.7 208.56 19.3 208.56 17.4C208.56 16.8 208.46 16 208.16 15.3C207.76 14.2 206.76 13.1 205.66 12.5C204.56 11.9 203.36 11.7 202.16 11.7H169.06L173.16 5C173.46 4.5 173.66 3.9 173.66 3.3C173.66 2.2 173.06 1.1 172.06 0.5C171.56 0.2 170.96 0 170.36 0C169.26 0 168.16 0.599998 167.56 1.6L160.36 13.4C160.06 13.9 159.86 14.5 159.86 15.1C159.86 15.7 159.96 16.2 160.26 16.7C160.86 17.7 161.96 18.4 163.16 18.4H201.56C200.46 20.3 198.26 22.9 195.66 25.5C192.76 28.4 189.26 31.4 185.86 34C185.16 34.5 184.56 35 183.86 35.5C177.96 31.1 173.46 26.1 171.06 22.6C170.46 21.7 169.36 21.2 168.36 21.2C167.66 21.2 167.06 21.4 166.46 21.8C165.56 22.4 165.06 23.5 165.06 24.5C165.06 25.1 165.26 25.8 165.66 26.4C168.26 30.1 172.36 34.8 177.86 39.2C172.46 42 166.16 44.2 158.86 45.2C157.16 45.4 155.96 46.9 155.96 48.5C155.96 48.6 155.96 48.8 155.96 48.9C156.16 50.6 157.56 51.8 159.26 51.8ZM147.26 42.5C147.26 44.3 148.76 45.8 150.56 45.8C152.36 45.8 153.86 44.3 153.86 42.5V15.1C153.86 13.3 152.36 11.8 150.56 11.8C148.76 11.8 147.26 13.3 147.26 15.1V42.5ZM286.06 15.7H313.16C314.96 15.7 316.46 14.2 316.46 12.4C316.46 10.6 314.96 9.1 313.16 9.1H291.36L293.46 4.8C293.66 4.3 293.76 3.8 293.76 3.4C293.76 2.2 293.06 1 291.86 0.400002C291.36 0.200002 290.96 0.0999985 290.46 0.0999985C289.26 0.0999985 288.06 0.8 287.46 2L283.16 11C282.96 11.5 282.86 11.9 282.86 12.4C282.86 13 283.06 13.6 283.36 14.2C283.86 15.2 284.96 15.7 286.06 15.7ZM281.66 29.5C281.66 27.7 280.16 26.2 278.36 26.2H266.56C266.56 24.8 266.56 23.6 266.56 22.4C266.56 20.8 266.56 19.4 266.56 18.3H276.16C277.06 18.3 277.86 17.9 278.56 17.3C279.16 16.7 279.56 15.8 279.56 14.9V3.4C279.56 1.6 278.06 0.0999985 276.26 0.0999985C274.46 0.0999985 272.96 1.6 272.96 3.4V11.7H256.16C254.36 11.7 252.86 13.2 252.86 15C252.86 16.8 254.36 18.3 256.16 18.3H260.06C260.06 19.3 260.06 20.7 260.06 22.4C260.06 27.6 259.86 35.5 258.86 43.7C257.86 51.8 256.06 60.2 253.06 65.9C252.86 66.4 252.66 66.9 252.66 67.4C252.66 68.6 253.36 69.8 254.46 70.4C254.96 70.6 255.46 70.8 255.96 70.8C257.16 70.8 258.36 70.1 258.96 69C262.46 62 264.36 53.1 265.36 44.6C265.86 40.5 266.16 36.6 266.36 33H274.96C274.86 35.7 274.76 39.8 274.36 44.5C273.76 52.2 272.46 61.6 270.16 69.4C270.06 69.7 270.06 70 270.06 70.4C270.06 71.8 270.96 73.2 272.46 73.6C272.76 73.7 273.06 73.7 273.36 73.7C274.76 73.7 276.16 72.8 276.56 71.3C279.06 62.7 280.36 53 280.96 45C281.56 36.9 281.66 30.6 281.66 29.5ZM291.06 65.8C289.26 65.8 287.76 67.3 287.76 69.1C287.76 70.9 289.26 72.4 291.06 72.4H300.16C303.36 72.4 305.86 69.8 305.86 66.6V48.7H312.96C314.76 48.7 316.26 47.2 316.26 45.4C316.26 43.6 314.76 42.1 312.96 42.1H305.96V35.5L311.76 25.4C312.06 24.9 312.16 24.3 312.16 23.7C312.16 23.1 312.06 22.5 311.76 22C311.16 21 310.06 20.3 308.86 20.3H289.46C287.66 20.3 286.16 21.8 286.16 23.6C286.16 25.4 287.66 26.9 289.46 26.9H303.16L299.76 32.8C299.46 33.3 299.36 33.9 299.36 34.5V42H286.96C285.16 42 283.66 43.5 283.66 45.3C283.66 47.1 285.16 48.6 286.96 48.6H299.36V65.6H291.06V65.8ZM145.76 0.400002C145.26 0.100002 144.76 0 144.26 0C143.06 0 141.96 0.600003 141.36 1.8C138.76 6.8 132.86 16.2 122.96 24.2C122.16 24.9 121.76 25.8 121.76 26.8C121.76 27.5 121.96 28.3 122.46 28.9C123.16 29.7 124.06 30.1 125.06 30.1C125.76 30.1 126.56 29.9 127.16 29.4C129.36 27.7 131.26 25.9 133.06 24.1V48.9C133.06 50.7 134.56 52.2 136.36 52.2C138.16 52.2 139.66 50.7 139.66 48.9V16.6C143.26 12 145.66 7.9 147.26 5C147.56 4.5 147.66 4 147.66 3.5C147.46 2.2 146.86 1 145.76 0.400002ZM207.36 59.7C206.86 58.4 205.56 57.6 204.26 57.6C203.86 57.6 203.46 57.7 203.06 57.8C201.76 58.3 200.96 59.6 200.96 60.9C200.96 61.3 201.06 61.7 201.16 62.1L208.16 80.1C208.66 81.4 209.96 82.2 211.26 82.2C211.66 82.2 212.06 82.1 212.46 82C213.76 81.5 214.56 80.2 214.56 78.9C214.56 78.5 214.46 78.1 214.36 77.7L207.36 59.7ZM313.86 77C265.76 77 265.76 77 265.66 77C258.76 77 254.66 74.7 252.06 72.5C250.46 71.2 249.46 69.8 248.96 69V43C248.96 38.6 245.46 35.1 241.06 35.1H234.26C232.46 35.1 230.96 36.6 230.96 38.4C230.96 40.2 232.46 41.7 234.26 41.7H240.76C241.66 41.7 242.36 42.4 242.36 43.3V66.8C242.36 68.6 241.76 70.9 240.36 72.8C239.06 74.8 237.06 76.4 234.46 77.3C233.06 77.8 232.16 79.1 232.16 80.5C232.16 80.8 232.16 81.2 232.36 81.5C232.86 82.9 234.16 83.8 235.56 83.8C235.86 83.8 236.26 83.7 236.56 83.6C240.76 82.3 243.96 79.6 245.96 76.5C246.06 76.3 246.16 76.2 246.26 76C246.76 76.5 247.26 77 247.86 77.5C251.46 80.6 257.26 83.6 265.66 83.6H265.76C265.96 83.6 265.96 83.6 313.96 83.6C315.76 83.6 317.26 82.1 317.26 80.3C317.26 78.5 315.66 77 313.86 77ZM136.16 57.6C134.26 57.6 132.76 59.1 132.76 61V61.1C132.76 61.5 132.76 64 132.16 67.1C131.56 70.3 130.36 74.1 128.26 77.1C127.86 77.7 127.66 78.3 127.66 79C127.66 80.1 128.16 81.1 129.16 81.8C129.76 82.2 130.36 82.4 131.06 82.4C132.16 82.4 133.16 81.9 133.86 80.9C136.76 76.7 138.06 72.1 138.76 68.4C139.46 64.7 139.46 61.8 139.46 61.2C139.46 61.1 139.46 61.1 139.46 61.1C139.56 59 138.06 57.6 136.16 57.6ZM390.26 55C390.96 55.8 391.96 56.1 392.86 56.1C393.76 56.1 394.56 55.8 395.26 55.2C396.06 54.5 396.36 53.5 396.36 52.6C396.36 51.7 396.06 50.9 395.46 50.2L382.56 36.2C381.86 35.5 380.96 35.1 379.96 35.1C378.96 35.1 378.06 35.5 377.36 36.2L364.46 50.2C363.86 50.9 363.56 51.7 363.56 52.6C363.56 53.6 363.96 54.5 364.66 55.2C365.36 55.8 366.16 56.1 367.06 56.1C368.06 56.1 368.96 55.7 369.66 55L379.96 43.8L390.26 55ZM365.06 4.4C365.06 3.1 364.26 1.8 363.06 1.2C362.56 1 362.06 0.900002 361.66 0.900002C360.36 0.900002 359.06 1.7 358.46 2.9C357.46 5.1 354.96 9.9 350.76 15.7C346.56 21.5 340.66 28.2 332.86 34.5C331.96 35.2 331.56 36.2 331.56 37.2C331.56 38 331.86 38.7 332.36 39.4C333.06 40.3 334.06 40.7 335.06 40.7C335.86 40.7 336.56 40.4 337.26 39.9C341.26 36.7 344.86 33.3 347.96 30V80.4C347.96 82.3 349.56 83.9 351.46 83.9C353.36 83.9 354.96 82.3 354.96 80.4V21.9C355.46 21.2 355.96 20.5 356.46 19.9C360.96 13.7 363.66 8.6 364.86 5.9C364.96 5.4 365.06 4.9 365.06 4.4ZM421.26 19.6H411.56V4.4C411.56 2.5 409.96 0.900002 408.06 0.900002C406.16 0.900002 404.56 2.5 404.56 4.4V19.6H363.66C361.76 19.6 360.16 21.2 360.16 23.1C360.16 25 361.76 26.6 363.66 26.6H404.56V67.3C404.56 70.2 403.36 72.9 401.46 74.8C399.56 76.7 396.96 77.9 393.96 77.9C391.06 77.9 388.36 76.7 386.46 74.8C384.56 72.9 383.36 70.3 383.36 67.3V57.5C383.36 55.6 381.76 54 379.86 54C377.96 54 376.36 55.6 376.36 57.5V67.3C376.36 77 384.26 84.8 393.86 84.8C403.56 84.8 411.36 76.9 411.36 67.3V26.6H421.06C422.96 26.6 424.56 25 424.56 23.1C424.76 21.2 423.16 19.6 421.26 19.6ZM195.96 59.1C194.86 58.1 193.36 57.6 191.76 57.6H168.86C166.96 57.6 165.46 59.1 165.46 61C165.46 61.4 165.56 61.9 165.66 62.3L169.56 72.2C170.06 73.5 171.36 74.3 172.66 74.3C173.06 74.3 173.46 74.2 173.86 74.1C175.16 73.6 175.96 72.3 175.96 71C175.96 70.6 175.86 70.2 175.76 69.8L173.66 64.5H191.06V76.2C191.06 76.8 190.56 77.2 190.06 77.2H154.96C154.36 77.2 153.96 76.7 153.96 76.2V55.4C153.96 53.5 152.46 52 150.56 52C148.66 52 147.16 53.5 147.16 55.4V76.4C147.16 80.5 150.56 83.9 154.66 83.9H190.36C194.56 83.9 197.86 80.5 197.86 76.4V63.6C197.96 61.6 197.06 60.1 195.96 59.1Z" fill="black"/>
<path d="M50.7579 61.9075C54.0573 61.7279 57.1734 68.4125 58.5665 70.3533C59.4463 71.6111 60.3628 72.0065 61.3526 73.1925C61.6826 73.5878 63.4423 74.5222 63.9922 74.5582C67.3282 74.8816 69.4179 73.7675 70.9943 73.3362C73.1206 72.7612 74.4403 72.6893 76.2367 71.6471C77.923 70.6408 90.8641 65.3218 91.5606 69.6345C92.1105 72.9409 82.7988 78.3318 80.7459 79.6975C80.3059 79.985 80.1593 80.7397 79.6461 80.9553C77.3365 81.9976 68.3547 85.4477 65.2753 84.693C60.6928 83.5789 54.8271 73.4081 52.9575 69.5267C52.5909 68.9157 48.3749 62.0154 50.7579 61.9075Z" fill="#EC008C"/>
<path d="M71.5516 64.9702C70.4261 64.3188 70.004 62.8711 70.6371 61.6767C73.3103 56.7184 74.8932 51.0723 74.9987 45.0282C74.9987 44.7749 74.9987 44.5577 74.9987 44.3043C74.9987 37.283 73.0289 30.7322 69.6171 25.1947C66.2052 19.6573 61.3512 15.1333 55.5826 12.2017C54.4219 11.6226 53.9295 10.1749 54.5274 8.98054C55.0902 7.78619 56.4972 7.27949 57.6579 7.89477C64.2003 11.2245 69.7226 16.3276 73.5917 22.6251C77.4609 28.9226 79.712 36.3782 79.712 44.3405C79.712 44.6301 79.712 44.8834 79.712 45.173C79.5713 52.0133 77.8126 58.4556 74.7525 64.0654C74.3304 64.8617 73.5214 65.296 72.7124 65.296C72.3255 65.296 71.9034 65.1874 71.5516 64.9702Z" fill="#EC008C"/>
<path d="M101.675 38.0373C99.0469 27.5001 93.503 18.0721 85.871 10.8254C84.899 9.90113 83.387 9.97507 82.487 10.9733C81.587 11.9716 81.659 13.5244 82.631 14.4488C86.627 18.2569 89.975 22.6936 92.567 27.611C84.575 20.9929 74.5311 17.2217 64.0192 17.2217C59.8432 17.2217 55.6312 17.8133 51.4193 19.0703C40.4393 22.3239 31.5474 29.4596 25.8235 38.5918C25.1035 39.738 25.4275 41.2539 26.5434 41.9933C26.9394 42.2521 27.4074 42.4 27.8394 42.4C28.6314 42.4 29.3874 41.9933 29.8554 41.2539C35.0034 33.0829 42.9233 26.6867 52.7513 23.8028C56.4952 22.6936 60.3112 22.176 64.0192 22.176C74.9271 22.176 85.331 26.7237 92.855 34.5249C92.639 34.5249 92.459 34.5249 92.243 34.5249C89.111 34.5249 86.555 35.3752 84.755 36.1886C82.955 37.039 81.911 37.8894 81.803 37.9633C80.7591 38.8137 80.6151 40.3665 81.443 41.4387C81.911 42.0303 82.631 42.3631 83.315 42.3631C83.855 42.3631 84.359 42.1782 84.827 41.8085C84.827 41.8085 84.827 41.8085 84.863 41.7715C85.043 41.6236 85.871 41.032 87.167 40.4775C88.463 39.9229 90.227 39.4052 92.279 39.4052C94.079 39.4052 96.0949 39.775 98.3629 40.8841C99.1909 41.2908 100.199 41.1799 100.919 40.5514C101.603 39.9229 101.927 38.9616 101.675 38.0373Z" fill="#2DA343"/>
<path d="M55.544 50.032C60.4616 50.032 64.448 46.2355 64.448 41.552C64.448 36.8686 60.4616 33.072 55.544 33.072C50.6264 33.072 46.64 36.8686 46.64 41.552C46.64 46.2355 50.6264 50.032 55.544 50.032Z" fill="#EC008C"/>
<path d="M4.88806 49.2199C4.96102 50.5629 3.90315 51.6882 2.55346 51.7245C1.20378 51.7971 0.0729528 50.7444 0.0364747 49.4014C-3.34021e-06 48.7117 0 48.0584 0 47.3687C0 36.2616 4.37737 26.0982 11.5635 18.5845C17.9837 11.8694 26.6655 7.22328 36.4416 5.95285C33.3774 5.19059 30.1674 4.82762 26.9208 4.82762C25.3523 4.82762 23.7472 4.93651 22.1422 5.118C20.7925 5.26319 19.5887 4.31945 19.4428 3.01272C19.2969 1.6697 20.2453 0.471869 21.5585 0.326679C23.346 0.108891 25.1334 0 26.9208 0C35.4202 0 43.5548 2.39566 50.5586 6.60621C51.3246 7.04179 51.7624 7.87664 51.7259 8.74779C51.6894 9.61893 51.1787 10.4175 50.4127 10.8168C45.3787 13.3939 40.9649 16.9874 37.463 21.3431C36.9887 21.9239 36.2957 22.2506 35.5661 22.2506C35.0189 22.2506 34.4718 22.0691 34.034 21.7061C32.9762 20.8713 32.8303 19.3468 33.6692 18.2941C36.0768 15.354 38.8127 12.7043 41.8768 10.4538C41.3296 10.4538 40.7825 10.4538 40.2353 10.4901C30.2768 10.962 21.4491 15.2814 15.0654 21.9602C8.71826 28.639 4.85158 37.6046 4.85158 47.405C4.85158 48.0221 4.85158 48.6028 4.88806 49.2199Z" fill="#0082C4"/>
<path d="M29.0753 48.1988C27.8359 47.692 26.4143 48.2712 25.9039 49.466C23.7167 54.607 22.6232 60.0739 22.6232 65.5046C22.6232 65.6856 22.6232 65.8666 22.6232 66.0476C19.3424 58.9516 17.3739 50.3711 17.3739 41.1027C17.3739 40.8493 17.3739 40.5959 17.3739 40.3786C17.4833 30.8206 19.7434 21.7333 23.3158 14.4924C23.899 13.2977 23.3887 11.8495 22.1857 11.2702C20.9828 10.6909 19.5247 11.1616 18.9414 12.3925C15.0409 20.3213 12.635 30.0966 12.4892 40.3424C12.4892 40.5959 12.4892 40.8855 12.4892 41.1389C12.4892 51.8917 14.9316 61.8479 19.1237 69.9939C14.0932 66.5545 9.93751 61.8841 7.16708 56.3448C6.54738 55.1501 5.08926 54.6794 3.88631 55.2587C2.68336 55.8742 2.20947 57.3224 2.79272 58.5171C7.56806 67.9303 15.8064 75.2074 25.7581 78.7192C26.0133 78.8278 26.3049 78.864 26.5601 78.864C27.1798 78.864 27.763 78.6468 28.2369 78.2124C28.8931 77.5969 29.1483 76.6556 28.8931 75.7867C27.9088 72.4558 27.3985 68.9802 27.3985 65.5046C27.3985 60.6894 28.3463 55.8742 30.2783 51.3486C30.898 50.1177 30.3147 48.7057 29.0753 48.1988Z" fill="#FAAB54"/>
</svg>
