<svg width="23" height="23" viewBox="0 0 23 23" fill="none" xmlns="http://www.w3.org/2000/svg">
<path d="M20.5357 0H2.46429C1.81072 0 1.18392 0.259629 0.721773 0.721773C0.259629 1.18392 0 1.81072 0 2.46429L0 20.5357C0 21.1893 0.259629 21.8161 0.721773 22.2782C1.18392 22.7404 1.81072 23 2.46429 23H9.5106V15.1805H6.27623V11.5H9.5106V8.69482C9.5106 5.50409 11.4102 3.74161 14.3196 3.74161C15.7129 3.74161 17.1699 3.99009 17.1699 3.99009V7.12179H15.5645C13.9828 7.12179 13.4894 8.10339 13.4894 9.11016V11.5H17.0205L16.4558 15.1805H13.4894V23H20.5357C21.1893 23 21.8161 22.7404 22.2782 22.2782C22.7404 21.8161 23 21.1893 23 20.5357V2.46429C23 1.81072 22.7404 1.18392 22.2782 0.721773C21.8161 0.259629 21.1893 0 20.5357 0Z" fill="white"/>
</svg>
