<svg width="16" height="18" viewBox="0 0 16 18" fill="none" xmlns="http://www.w3.org/2000/svg">
<path d="M11.5417 3.54173C11.5417 2.70845 11.993 1.90984 12.8957 1.14591C13.7983 0.381968 14.8331 0 16 0V17.7522H13.7918V10.6679H11.5417V3.54173V3.54173ZM7.12524 6.20869V0H8.87565V6.20869C8.87565 7.15339 8.55621 7.96592 7.91732 8.64629C7.27844 9.32667 6.48665 9.69471 5.54195 9.75042V17.7513H3.3337V9.75042C2.38901 9.69471 1.59721 9.32667 0.958329 8.64629C0.319443 7.96592 0 7.15339 0 6.20869V0H1.7922V6.20869H3.54262V0H5.33481V6.20869H7.12701H7.12524Z" fill="#979797"/>
</svg>
