<svg width="26" height="10" viewBox="0 0 26 10" fill="none" xmlns="http://www.w3.org/2000/svg">
<path fill-rule="evenodd" clip-rule="evenodd" d="M4.15836 1.64571C4.75304 1.63416 5.32461 1.85933 5.75186 2.26925L6.93543 1.08567C6.18487 0.375531 5.19182 -0.0112958 4.15836 0.000251252C2.58796 0.000251252 1.15035 0.889375 0.445984 2.29234C0.152788 2.87025 0 3.50916 0 4.15719C0 4.80521 0.152795 5.4441 0.445984 6.02201V6.02781C1.15035 7.42501 2.58796 8.31413 4.15836 8.31413C5.27843 8.31413 6.22528 7.94462 6.91233 7.30954C7.69753 6.58785 8.14789 5.51974 8.14789 4.24957C8.14789 3.96666 8.1248 3.68376 8.07861 3.40663H4.15839V5.0059H6.40429C6.31191 5.51974 6.01169 5.98162 5.5729 6.27032C5.19762 6.52436 4.71839 6.66867 4.15836 6.66867C3.07294 6.66867 2.15495 5.93544 1.82586 4.95395C1.65316 4.44162 1.65267 3.88336 1.82435 3.36504L1.82586 3.36622C2.15495 2.37894 3.07294 1.64571 4.15836 1.64571ZM11.9065 7.81761V4.88465H13.448C14.0773 4.88465 14.6085 4.67681 15.0415 4.26689C15.4745 3.87429 15.717 3.31425 15.7054 2.73113C15.717 2.15377 15.4745 1.59374 15.0415 1.20692C14.6085 0.791223 14.0369 0.566055 13.4422 0.577602H10.9769V7.81761H11.9065ZM11.9065 3.99553V1.46673L13.4653 1.4725C13.8117 1.46095 14.1466 1.59952 14.3833 1.85355L14.4064 1.87665C14.8798 2.3674 14.8741 3.14682 14.3833 3.62025C14.1466 3.86851 13.8117 4.00708 13.4653 3.99553H11.9065ZM19.4756 3.25075C19.0772 2.88701 18.5345 2.70226 17.8474 2.70226C16.9641 2.70226 16.3001 3.02558 15.8556 3.66644L16.6754 4.18028C16.9814 3.7415 17.3913 3.5221 17.9109 3.5221C18.24 3.5221 18.5576 3.64335 18.8058 3.86274C19.0483 4.06481 19.1869 4.36504 19.1869 4.68258V4.8962C18.8289 4.6999 18.3786 4.59598 17.8243 4.59598C17.1777 4.59598 16.6581 4.74609 16.2713 5.05209C15.8844 5.35808 15.6881 5.76223 15.6881 6.27607C15.6766 6.74373 15.8787 7.18829 16.2366 7.48851C16.6003 7.81183 17.0622 7.97349 17.6049 7.97349C18.2458 7.97349 18.7539 7.69059 19.1407 7.12478H19.1811V7.81183H20.0702V4.76341C20.0702 4.12255 19.8739 3.62025 19.4756 3.25075ZM16.9525 6.90539C16.762 6.76682 16.6465 6.54166 16.6465 6.29917C16.6465 6.02781 16.7735 5.80264 17.0218 5.61789C17.2758 5.43891 17.5934 5.34654 17.9687 5.34654C18.4883 5.34654 18.8924 5.46201 19.1811 5.69295C19.1811 6.08555 19.0252 6.42619 18.7192 6.71486C18.4421 6.99199 18.0668 7.14788 17.6742 7.14788C17.4144 7.15365 17.1604 7.06705 16.9525 6.90539ZM22.0679 10L25.174 2.86392L24.1637 2.86969L22.7261 6.42619H22.703L21.2307 2.86969H20.2203L22.2642 7.50584L21.1095 10H22.0679Z" fill="black"/>
</svg>
