<svg width="24" height="25" viewBox="0 0 24 25" fill="none" xmlns="http://www.w3.org/2000/svg">
<path d="M23.5202 12.8429C23.5202 12.0263 23.4536 11.2096 23.3202 10.4097H12.0039V15.0262H18.487C18.2204 16.5095 17.3537 17.8428 16.0871 18.6761V21.676H19.9537C22.2203 19.5927 23.5202 16.5095 23.5202 12.8429Z" fill="#4285F4"/>
<path d="M12.0038 24.5759C15.2371 24.5759 17.9703 23.5093 19.9536 21.676L16.087 18.6761C15.0037 19.4094 13.6204 19.8261 12.0038 19.8261C8.87058 19.8261 6.22066 17.7095 5.27069 14.8762H1.28748V17.9761C3.32075 22.0093 7.47062 24.5759 12.0038 24.5759Z" fill="#34A853"/>
<path d="M5.27066 14.8762C4.77068 13.3929 4.77068 11.7763 5.27066 10.2764V7.19312H1.28745C0.441084 8.86135 0 10.7056 0 12.5763C0 14.4469 0.441084 16.2912 1.28745 17.9595L5.27066 14.8762Z" fill="#FBBC04"/>
<path d="M12.0038 5.32651C13.7204 5.29318 15.3704 5.94316 16.6037 7.12646L20.0202 3.70989C17.8536 1.65995 14.9871 0.543321 12.0038 0.576653C7.47062 0.576653 3.32075 3.14324 1.28748 7.19312L5.27069 10.293C6.22066 7.44311 8.87058 5.32651 12.0038 5.32651Z" fill="#EA4335"/>
</svg>
