<svg width="26" height="10" viewBox="0 0 26 10" fill="none" xmlns="http://www.w3.org/2000/svg">
<path d="M11.9065 4.88465V7.81761H10.9769V0.577602H13.4422C14.0369 0.566055 14.6085 0.791223 15.0415 1.20692C15.4745 1.59374 15.717 2.15377 15.7054 2.73113C15.717 3.31425 15.4745 3.87429 15.0415 4.26689C14.6085 4.67681 14.0773 4.88465 13.448 4.88465H11.9065ZM11.9065 1.46673V3.99553H13.4653C13.8117 4.00708 14.1466 3.86851 14.3833 3.62025C14.8741 3.14682 14.8798 2.3674 14.4064 1.87665L14.3833 1.85355C14.1466 1.59952 13.8117 1.46095 13.4653 1.4725L11.9065 1.46673ZM17.8474 2.70226C18.5345 2.70226 19.0772 2.88701 19.4756 3.25075C19.8739 3.62025 20.0702 4.12255 20.0702 4.76341V7.81183H19.1811V7.12478H19.1407C18.7539 7.69059 18.2458 7.97349 17.6049 7.97349C17.0622 7.97349 16.6003 7.81183 16.2366 7.48851C15.8787 7.18829 15.6766 6.74373 15.6881 6.27607C15.6881 5.76223 15.8844 5.35808 16.2713 5.05209C16.6581 4.74609 17.1777 4.59598 17.8243 4.59598C18.3786 4.59598 18.8289 4.6999 19.1869 4.8962V4.68258C19.1869 4.36504 19.0483 4.06481 18.8058 3.86274C18.5576 3.64335 18.24 3.5221 17.9109 3.5221C17.3913 3.5221 16.9814 3.7415 16.6754 4.18028L15.8556 3.66644C16.3001 3.02558 16.9641 2.70226 17.8474 2.70226ZM16.6465 6.29917C16.6465 6.54166 16.762 6.76682 16.9525 6.90539C17.1604 7.06705 17.4144 7.15365 17.6742 7.14788C18.0668 7.14788 18.4421 6.99199 18.7192 6.71486C19.0252 6.42619 19.1811 6.08555 19.1811 5.69295C18.8924 5.46201 18.4883 5.34654 17.9687 5.34654C17.5934 5.34654 17.2758 5.43891 17.0218 5.61789C16.7735 5.80264 16.6465 6.02781 16.6465 6.29917ZM25.174 2.86392L22.0679 10H21.1095L22.2642 7.50584L20.2203 2.86969H21.2307L22.703 6.42619H22.7261L24.1637 2.86969L25.174 2.86392Z" fill="#5F6368"/>
<path d="M8.14789 4.24957C8.14789 3.96666 8.1248 3.68376 8.07861 3.40663H4.15839V5.0059H6.40429C6.31191 5.51974 6.01169 5.98162 5.5729 6.2703V7.30954H6.91236C7.69756 6.58784 8.14789 5.51974 8.14789 4.24957Z" fill="#4285F4"/>
<path d="M4.15836 8.31413C5.27843 8.31413 6.22528 7.94462 6.91233 7.30954L5.57288 6.2703C5.1976 6.52434 4.71839 6.66868 4.15836 6.66868C3.07294 6.66868 2.15495 5.93544 1.82586 4.95394H0.445984V6.02781C1.15035 7.42501 2.58796 8.31413 4.15836 8.31413Z" fill="#34A853"/>
<path d="M1.82587 4.95394C1.65267 4.44009 1.65267 3.88006 1.82587 3.36044V2.29234H0.446C0.152801 2.87025 0 3.50915 0 4.15719C0 4.80522 0.152801 5.44413 0.446 6.02204L1.82587 4.95394Z" fill="#FBBC04"/>
<path d="M4.15836 1.64571C4.75304 1.63416 5.32461 1.85933 5.75186 2.26925L6.93543 1.08567C6.18487 0.375531 5.19182 -0.0112958 4.15836 0.000251252C2.58796 0.000251252 1.15035 0.889375 0.445984 2.29234L1.82586 3.36622C2.15495 2.37894 3.07294 1.64571 4.15836 1.64571Z" fill="#EA4335"/>
</svg>
