<?xml version="1.0" encoding="utf-8"?>
<!-- Generator: Adobe Illustrator 24.1.0, SVG Export Plug-In . SVG Version: 6.00 Build 0)  -->
<svg version="1.1" id="圖層_1" xmlns="http://www.w3.org/2000/svg" xmlns:xlink="http://www.w3.org/1999/xlink" x="0px" y="0px"
	 viewBox="0 0 26 10" style="enable-background:new 0 0 26 10;" xml:space="preserve">
<style type="text/css">
	.st0{fill:#FFFFFF;}
	.st1{fill:#4285F4;}
	.st2{fill:#34A853;}
	.st3{fill:#FBBC04;}
	.st4{fill:#EA4335;}
</style>
<path class="st0" d="M11.9,4.9v2.9H11V0.6h2.5c0.6,0,1.2,0.2,1.6,0.6c0.4,0.4,0.7,0.9,0.7,1.5c0,0.6-0.2,1.1-0.7,1.5
	c-0.4,0.4-1,0.6-1.6,0.6H11.9z M11.9,1.5V4h1.6c0.3,0,0.7-0.1,0.9-0.4c0.5-0.5,0.5-1.3,0-1.7l0,0c-0.2-0.3-0.6-0.4-0.9-0.4L11.9,1.5
	z M17.8,2.7c0.7,0,1.2,0.2,1.6,0.5c0.4,0.4,0.6,0.9,0.6,1.5v3h-0.9V7.1h0C18.8,7.7,18.2,8,17.6,8c-0.5,0-1-0.2-1.4-0.5
	c-0.4-0.3-0.6-0.7-0.5-1.2c0-0.5,0.2-0.9,0.6-1.2c0.4-0.3,0.9-0.5,1.6-0.5c0.6,0,1,0.1,1.4,0.3V4.7c0-0.3-0.1-0.6-0.4-0.8
	c-0.2-0.2-0.6-0.3-0.9-0.3c-0.5,0-0.9,0.2-1.2,0.7l-0.8-0.5C16.3,3,17,2.7,17.8,2.7z M16.6,6.3c0,0.2,0.1,0.5,0.3,0.6
	c0.2,0.2,0.5,0.2,0.7,0.2c0.4,0,0.8-0.2,1-0.4c0.3-0.3,0.5-0.6,0.5-1c-0.3-0.2-0.7-0.3-1.2-0.3c-0.4,0-0.7,0.1-0.9,0.3
	C16.8,5.8,16.6,6,16.6,6.3z M25.2,2.9L22.1,10h-1l1.2-2.5l-2-4.6h1l1.5,3.6h0l1.4-3.6L25.2,2.9z"/>
<path class="st1" d="M8.1,4.2c0-0.3,0-0.6-0.1-0.8H4.2V5h2.2C6.3,5.5,6,6,5.6,6.3v1h1.3C7.7,6.6,8.1,5.5,8.1,4.2z"/>
<path class="st2" d="M4.2,8.3c1.1,0,2.1-0.4,2.8-1l-1.3-1C5.2,6.5,4.7,6.7,4.2,6.7c-1.1,0-2-0.7-2.3-1.7H0.4V6
	C1.2,7.4,2.6,8.3,4.2,8.3z"/>
<path class="st3" d="M1.8,5c-0.2-0.5-0.2-1.1,0-1.6V2.3H0.4C0.2,2.9,0,3.5,0,4.2C0,4.8,0.2,5.4,0.4,6L1.8,5z"/>
<path class="st4" d="M4.2,1.6c0.6,0,1.2,0.2,1.6,0.6l1.2-1.2C6.2,0.4,5.2,0,4.2,0c-1.6,0-3,0.9-3.7,2.3l1.4,1.1
	C2.2,2.4,3.1,1.6,4.2,1.6z"/>
</svg>
