<svg width="18" height="18" viewBox="0 0 18 18" fill="none" xmlns="http://www.w3.org/2000/svg">
<path d="M8.99999 14.238C10.453 14.238 11.6892 13.7283 12.7087 12.7088C13.7282 11.6893 14.238 10.453 14.238 9.00001C14.238 7.54701 13.7282 6.31076 12.7087 5.29126C11.6892 4.27176 10.453 3.76201 8.99999 3.76201C7.54699 3.76201 6.31074 4.27176 5.29124 5.29126C4.27174 6.31076 3.76199 7.54701 3.76199 9.00001C3.76199 10.453 4.27174 11.6893 5.29124 12.7088C6.31074 13.7283 7.54699 14.238 8.99999 14.238ZM15.7147 8.26201H17.262V9.73876H15.7147C15.5507 11.2153 14.8827 12.5395 13.7107 13.7115C12.5387 14.8835 11.2145 15.5515 9.73799 15.7155V17.2628H8.26124V15.7155C6.78474 15.5515 5.46049 14.8835 4.28849 13.7115C3.11649 12.5395 2.44849 11.2153 2.28449 9.73876H0.737244V8.26201H2.28449C2.44849 6.78551 3.11649 5.46126 4.28849 4.28926C5.46049 3.11726 6.78474 2.44926 8.26124 2.28526V0.738007H9.73799V2.28526C11.2145 2.44926 12.5387 3.11726 13.7107 4.28926C14.8827 5.46126 15.5507 6.78551 15.7147 8.26201ZM8.99999 6.01201C9.82049 6.01201 10.5237 6.30501 11.1097 6.89101C11.6957 7.47701 11.9887 8.18026 11.9887 9.00076C11.9887 9.82126 11.6957 10.5245 11.1097 11.1105C10.5237 11.6965 9.82049 11.9895 8.99999 11.9895C8.17949 11.9895 7.47624 11.6965 6.89024 11.1105C6.30424 10.5245 6.01124 9.82126 6.01124 9.00076C6.01124 8.18026 6.30424 7.47701 6.89024 6.89101C7.47624 6.30501 8.17949 6.01201 8.99999 6.01201Z" fill="black"/>
</svg>
