<svg width="140" height="40" viewBox="0 0 140 40" fill="none" xmlns="http://www.w3.org/2000/svg">
<g clip-path="url(#clip0_3255_607)">
<path d="M138.337 13.1365H83.4487L89.1535 15.799L86.1989 29.2745C85.9643 30.6664 86.6895 31.7946 87.8177 31.7946H134.386C135.91 31.7946 136.618 30.6664 136.852 29.2745L139.957 15.799C140.191 14.4072 139.465 13.1365 138.337 13.1365Z" fill="url(#paint0_linear_3255_607)"/>
<path d="M43.8114 21.1158C43.8114 17.0946 42.0481 15.8126 38.2016 15.8126H28.2607V20.2175H38.3221V21.6993H31.898C29.1846 21.6993 27.938 22.6021 27.938 25.4455V28.0605C27.938 30.9006 29.1846 31.8071 31.898 31.8071H43.8114V21.1158ZM38.3221 27.4036H33.4246V25.346H38.3221V27.4036Z" fill="#23ABAF"/>
<path d="M24.3789 20.5167V15.8126H15.0179C11.1673 15.8126 9.40601 17.1012 9.40601 21.1158V26.506C9.40601 30.5249 11.1665 31.8071 15.0179 31.8071H24.3793V27.0234H14.8603V20.5165L24.3789 20.5167Z" fill="#23ABAF"/>
<path d="M71.3903 15.8126H65.655V31.8071H71.3901V26.1716H76.2924V31.8071H82.0241V15.8126H76.2926V21.1236H71.3903V15.8126Z" fill="#23ABAF"/>
<path d="M5.73361 18.3627L0.323242 15.8126V31.8071L5.73361 29.2585V18.3627Z" fill="#23ABAF"/>
<path d="M47.4092 27.4036V31.8071H57.6414C61.1666 31.8071 62.7774 30.6746 62.7774 27.1237V25.6134C62.7774 22.4557 61.3454 21.4475 58.2132 21.4475H52.0577V20.2175H62.2999V15.8126H52.0751C48.5494 15.8126 46.937 16.9476 46.937 20.4984V22.0073C46.937 25.1607 48.3684 26.1706 51.5028 26.1706H57.6512V27.402L47.4092 27.4036Z" fill="#23ABAF"/>
<path d="M6.1346 11.2573C6.13456 11.8639 5.95465 12.4569 5.61762 12.9613C5.28059 13.4656 4.80157 13.8587 4.24113 14.0908C3.6807 14.323 3.06402 14.3837 2.46907 14.2654C1.87412 14.147 1.32762 13.8549 0.89867 13.426C0.469722 12.9971 0.17759 12.4506 0.0592139 11.8557C-0.0591621 11.2607 0.00153365 10.644 0.233627 10.0836C0.46572 9.52314 0.858787 9.04409 1.36313 8.70703C1.86746 8.36997 2.46043 8.19002 3.06703 8.18994C3.88047 8.19025 4.66051 8.51351 5.23572 9.08868C5.81092 9.66386 6.13423 10.4439 6.1346 11.2573Z" fill="#23ABAF"/>
<path d="M134.673 16.326H130.05V20.892H125.932V16.326H121.343V20.2116C121.343 23.4953 122.605 24.3323 125.932 24.3323H130.05V26.3948H123.979L121.343 29.7587H129.904C132.826 29.7587 134.673 28.7931 134.673 25.7652L134.673 16.326Z" fill="white"/>
<path d="M119.609 20.7798C119.609 17.4026 118.128 16.326 114.899 16.326H106.55V19.7974H115V21.2698H109.605C107.326 21.2698 106.279 22.028 106.279 24.4167V26.6129C106.279 28.9975 107.326 29.7598 109.605 29.7598H119.609V20.7798ZM114.999 26.3653H110.886V24.3325H115L114.999 26.3653Z" fill="white"/>
<path d="M101.22 16.326H91.2151V29.7587L95.9257 27.9465V24.8147H101.22C103.499 24.8147 104.546 24.0563 104.546 21.6677V19.4725C104.546 17.0875 103.499 16.326 101.22 16.326ZM99.9381 21.7524H95.825V19.7978H99.9381V21.7524Z" fill="white"/>
</g>
<defs>
<linearGradient id="paint0_linear_3255_607" x1="25.8224" y1="-2.7416" x2="52.2138" y2="67.3117" gradientUnits="userSpaceOnUse">
<stop offset="0.041" stop-color="#DC000C"/>
<stop offset="0.213" stop-color="#FAE300"/>
<stop offset="0.36" stop-color="#61A81D"/>
<stop offset="0.531" stop-color="#00ACEC"/>
<stop offset="0.707" stop-color="#001976"/>
<stop offset="0.883" stop-color="#4A3085"/>
</linearGradient>
<clipPath id="clip0_3255_607">
<rect width="140" height="40" fill="white"/>
</clipPath>
</defs>
</svg>
