<?xml version="1.0" encoding="utf-8"?>
<!-- Generator: Adobe Illustrator 24.1.0, SVG Export Plug-In . SVG Version: 6.00 Build 0)  -->
<svg version="1.1" id="圖層_1" xmlns="http://www.w3.org/2000/svg" xmlns:xlink="http://www.w3.org/1999/xlink" x="0px" y="0px"
	 viewBox="0 0 37 26" style="enable-background:new 0 0 37 26;" xml:space="preserve">
<style type="text/css">
	.st0{fill:none;stroke:#E5E6E5;stroke-width:2;}
	.st1{fill:#E5E6E5;}
</style>
<path class="st0" d="M5,1h27c2.2,0,4,1.8,4,4v16c0,2.2-1.8,4-4,4H5c-2.2,0-4-1.8-4-4V5C1,2.8,2.8,1,5,1z"/>
<path class="st1" d="M9.2,5.3c-1.6,0-2.9,1.3-2.9,2.9s1.3,2.9,2.9,2.9c1.6,0,2.9-1.3,2.9-2.9S10.8,5.3,9.2,5.3z M6.9,19.8H30V14
	l-6.3-6.3c-0.3-0.3-0.9-0.3-1.2,0l-8.6,8.6L11,13.5c-0.3-0.3-0.9-0.3-1.2,0l-2.8,2.8V19.8z"/>
</svg>
