<svg width="9" height="10" viewBox="0 0 9 10" fill="none" xmlns="http://www.w3.org/2000/svg">
<path d="M8.21756 1.91525H4.63001C4.53669 1.34498 4.47447 0.733224 4.44337 0.079998H1.92378V0.76433H3.79014C3.81088 1.16871 3.85236 1.55235 3.9042 1.91525H0.130005V9.08H0.897286V2.67216H3.59314C3.2406 4.30004 2.39037 5.41986 1.00097 6.09382C1.16687 6.23898 1.40535 6.52931 1.51941 6.70557C2.89844 6.0005 3.74867 4.84958 4.18415 3.26318C4.63001 4.81848 5.42839 5.97977 6.78669 6.65373C6.91111 6.44636 7.15996 6.14567 7.32586 5.97977C5.96756 5.39912 5.18991 4.25857 4.7959 2.67216H7.43991V8.07424C7.43991 8.24014 7.39844 8.29198 7.2118 8.30235C7.00443 8.31272 6.36157 8.31272 5.68761 8.29198C5.80166 8.49935 5.91572 8.85189 5.94683 9.06963C6.82816 9.06963 7.41918 9.06963 7.77171 8.94521C8.11388 8.81041 8.21756 8.56156 8.21756 8.07424V1.91525Z" fill="white"/>
</svg>
