<svg width="63" height="18" viewBox="0 0 63 18" fill="none" xmlns="http://www.w3.org/2000/svg">
<path fill-rule="evenodd" clip-rule="evenodd" d="M16.8424 0H7.17068C4.86665 0 2.99182 1.87169 2.99182 4.17206V13.8279C2.99182 16.1282 4.86665 18 7.17068 18H16.8424C19.1465 18 21.0213 16.1282 21.0213 13.8279V4.17206C21.0213 1.87169 19.1465 0 16.8424 0Z" fill="#B82F29"/>
<path fill-rule="evenodd" clip-rule="evenodd" d="M9.23832 3.3809C9.43755 3.60691 9.40747 3.79067 9.28774 4.06362C9.16794 4.33663 8.71855 5.1112 7.95325 5.78814C7.18093 6.47132 6.47644 6.84579 6.18208 6.97001C5.88772 7.0943 5.70926 7.06037 5.51002 6.83435L5.26951 6.56154C5.07034 6.33552 5.0482 6.02982 5.22015 5.87882C5.22015 5.87882 6.38861 5.1179 6.89861 4.67061C7.40861 4.2234 8.32574 2.97242 8.32574 2.97242C8.4977 2.82135 8.79863 2.88207 8.9978 3.10808L9.23832 3.3809Z" fill="white"/>
<path fill-rule="evenodd" clip-rule="evenodd" d="M9.22918 6.63265L8.98508 6.35587C8.78292 6.12654 8.47619 6.0666 8.29922 6.22196C8.29922 6.22196 7.35402 7.5042 6.82976 7.96358C6.30583 8.42321 5.10684 9.20701 5.10684 9.20701C4.92993 9.36243 4.95064 9.67405 5.1528 9.90332L5.39664 10.1802C5.59874 10.4094 5.78105 10.4428 6.0827 10.314C6.24235 10.2458 6.52473 10.0994 6.86889 9.87784V14.5992C6.86889 14.8816 7.08096 15.1106 7.34263 15.1106H7.75718C8.01886 15.1106 8.23092 14.8816 8.23092 14.5992V8.76545C8.80903 8.16541 9.17019 7.56446 9.27514 7.3287C9.39931 7.04957 9.43108 6.86191 9.22918 6.63265Z" fill="white"/>
<path fill-rule="evenodd" clip-rule="evenodd" d="M18.5144 7.52313H13.8811C13.8713 7.52313 13.863 7.52794 13.8534 7.52852C13.8438 7.52794 13.8358 7.52313 13.8262 7.52313H12.8937C12.7233 7.52313 12.585 7.38526 12.585 7.21488V6.56869C12.585 6.39858 12.7233 6.26045 12.8937 6.26045H13.8262C14.1092 6.26045 14.3385 6.03229 14.3385 5.75064V5.41074C14.3385 5.12908 14.1092 4.90066 13.8262 4.90066H12.8937C12.7233 4.90066 12.585 4.76286 12.585 4.59268V3.48711C12.585 3.20461 12.3564 2.97535 12.0743 2.97535H11.7338C11.4517 2.97535 11.2229 3.20461 11.2229 3.48711V4.59268C11.2229 4.76286 11.0849 4.90066 10.9144 4.90066H9.93949C9.65652 4.90066 9.42688 5.12908 9.42688 5.41074V5.75064C9.42688 6.03229 9.65652 6.26045 9.93949 6.26045H10.9144C11.0849 6.26045 11.2229 6.39858 11.2229 6.56869V7.21488C11.2229 7.38526 11.0849 7.52313 10.9144 7.52313H9.93949C9.65652 7.52313 9.42688 7.75155 9.42688 8.03288V8.37317C9.42688 8.6545 9.65652 8.88292 9.93949 8.88292H10.9144C11.0849 8.88292 11.2229 9.02079 11.2229 9.19116V9.77339C11.2229 9.9435 11.0849 10.0816 10.9144 10.0816H9.93949C9.65652 10.0816 9.42688 10.3098 9.42688 10.5914V10.9313C9.42688 11.213 9.65652 11.4414 9.93949 11.4414H10.9144C11.0849 11.4414 11.2229 11.5792 11.2229 11.7494V12.8832C11.2229 13.0294 11.1209 13.1548 10.978 13.185C10.1237 13.3653 9.26841 13.5348 9.26841 13.5348C8.98427 13.6067 8.81388 13.9017 8.88791 14.1938L8.9775 14.5465C9.05153 14.8386 9.2253 14.9425 9.62618 14.945C10.0271 14.9479 10.5873 14.8825 11.8663 14.5552C13.1338 14.2311 13.9257 13.6883 14.2305 13.4811C14.535 13.2742 14.6847 13.1143 14.6106 12.8221L14.521 12.4698C14.4471 12.1776 14.1568 11.999 13.8727 12.0709C13.8727 12.0709 13.5007 12.256 13.021 12.4717C12.8169 12.5637 12.585 12.4146 12.585 12.191V11.7494C12.585 11.5792 12.7233 11.4414 12.8937 11.4414H13.8262C14.1092 11.4414 14.3385 11.213 14.3385 10.9313V10.5914C14.3385 10.3098 14.1092 10.0816 13.8262 10.0816H12.8937C12.7233 10.0816 12.585 9.9435 12.585 9.77339V9.19116C12.585 9.02079 12.7233 8.88292 12.8937 8.88292H13.8262C13.8358 8.88292 13.8438 8.87811 13.8534 8.87752C13.863 8.87811 13.8713 8.88292 13.8811 8.88292H15.034C15.2078 8.88292 15.3487 9.02358 15.3487 9.19681V14.5991C15.3487 14.8816 15.5607 15.1106 15.8221 15.1106H16.2369C16.4986 15.1106 16.7107 14.8816 16.7107 14.5991V9.19681C16.7107 9.02358 16.8513 8.88292 17.0251 8.88292H18.5144C18.7974 8.88292 19.027 8.6545 19.027 8.37317V8.03288C19.027 7.75155 18.7974 7.52313 18.5144 7.52313Z" fill="white"/>
<path fill-rule="evenodd" clip-rule="evenodd" d="M16.0318 4.76658C15.7091 4.76658 15.4475 4.5054 15.4475 4.18325C15.4475 3.8611 15.7091 3.59992 16.0318 3.59992C16.3545 3.59992 16.6161 3.8611 16.6161 4.18325C16.6161 4.5054 16.3545 4.76658 16.0318 4.76658ZM16.1052 2.90068C16.0801 2.89932 16.0566 2.90426 16.0318 2.90432C16.0071 2.90426 15.9835 2.89932 15.9584 2.90068C15.1927 2.94222 14.6919 3.65907 14.8202 4.45197C14.9461 5.2309 15.8677 6.85076 15.8677 6.85076C15.8998 6.9207 15.966 6.95418 16.0318 6.95307C16.0976 6.95418 16.1639 6.9207 16.1959 6.85076C16.1959 6.85076 17.1175 5.2309 17.2434 4.45197C17.3717 3.65907 16.8709 2.94222 16.1052 2.90068Z" fill="white"/>
<path fill-rule="evenodd" clip-rule="evenodd" d="M19.9342 13.8279C19.9342 15.5296 18.5475 16.9139 16.8431 16.9139H7.17135C5.46685 16.9139 4.08008 15.5296 4.08008 13.8279V4.17206C4.08008 2.47036 5.46685 1.08587 7.17135 1.08587H16.8431C18.5475 1.08587 19.9342 2.47036 19.9342 4.17206V13.8279ZM16.843 0H7.17129C4.86726 0 2.99243 1.87169 2.99243 4.17206V13.8279C2.99243 16.1282 4.86726 18 7.17129 18H16.843C19.1471 18 21.022 16.1282 21.022 13.8279V4.17206C21.022 1.87169 19.1471 0 16.843 0Z" fill="#B82F29"/>
<path fill-rule="evenodd" clip-rule="evenodd" d="M32.3503 12.8581C32.35 13.0153 32.3053 13.1379 32.2177 13.2223C32.1332 13.3037 32.014 13.3449 31.8628 13.3449L24.9929 13.3371C24.6735 13.3364 24.5049 13.1675 24.5052 12.8489L24.5131 5.93308C24.5135 5.78124 24.5551 5.6617 24.6368 5.57765C24.7214 5.49055 24.8438 5.44621 25.0007 5.44621L31.8708 5.45408C32.1763 5.45479 32.3586 5.63719 32.3583 5.94218L32.3503 12.8581ZM32.4436 3.99757L24.4325 3.98834C23.4657 3.9873 22.9966 4.46929 22.9956 5.41963L22.9863 13.3589C22.985 14.3238 23.4532 14.7925 24.42 14.7935L32.431 14.8028C33.3829 14.8038 33.8666 14.3364 33.868 13.3715L33.8773 5.43217C33.8783 4.48184 33.3955 3.99861 32.4436 3.99757Z" fill="#333333"/>
<path fill-rule="evenodd" clip-rule="evenodd" d="M41.248 11.4739C41.1805 11.447 41.1126 11.4062 41.0583 11.3658C39.9883 10.6879 39.1083 9.91524 38.4043 9.04856C38.3095 8.94014 38.188 8.80474 38.0524 8.65556C38.0389 8.65556 38.0257 8.62858 38.0119 8.60161L44.3555 8.60895C44.4908 8.60928 44.5724 8.64971 44.5721 8.71738C44.5175 9.01515 44.2189 9.40731 43.7035 9.86682C43.025 10.4611 42.2653 10.9746 41.3972 11.4065C41.3431 11.4338 41.3023 11.4473 41.248 11.4739ZM59.8391 5.08165C59.7308 4.98636 59.5546 4.93247 59.338 4.93214L58.2806 4.93091L58.2824 3.13105C58.2696 2.71172 58.0259 2.49481 57.538 2.49416C57.0501 2.52048 56.792 2.73681 56.7914 3.12923L56.7896 4.92902L52.4522 4.92415C52.2082 4.92382 52.0453 4.97752 51.9505 5.05864C51.8149 5.1668 51.7605 5.36961 51.7602 5.66739C51.7599 5.93819 51.8136 6.12748 51.9492 6.23597C52.0711 6.34439 52.2337 6.3986 52.4503 6.39893L56.7877 6.4038L56.78 13.021C56.78 13.1565 56.7123 13.2241 56.5766 13.2238C56.3446 13.2237 53.7563 13.3867 50.748 13.323L50.7568 5.8962C51.083 5.13892 51.3278 4.42174 51.5046 3.74559C51.5458 3.56975 51.573 3.38014 51.6004 3.17733C51.6006 2.90653 51.5059 2.71725 51.3297 2.62195C51.1674 2.54076 50.9505 2.48655 50.7065 2.48623C50.4896 2.5264 50.3266 2.67525 50.2315 2.91849C49.7009 4.74461 48.9264 6.47583 47.908 8.12585C47.799 8.28823 47.7312 8.43676 47.7312 8.57216C47.7309 8.78875 47.7981 8.96458 47.9473 9.08685C48.1095 9.23571 48.3265 9.30344 48.5839 9.30376C48.8552 9.30409 49.0584 9.2097 49.2213 8.99338C49.2351 8.96647 49.2486 8.93949 49.2759 8.91225L49.2706 13.2729C46.8971 13.1602 44.4597 12.8772 42.8332 12.2472C42.928 12.1933 43.0363 12.1394 43.145 12.072C44.2165 11.3965 45.0579 10.6667 45.6685 9.89594C46.103 9.28751 46.3341 8.77373 46.3752 8.35408C46.3755 7.94813 46.2267 7.66388 45.9291 7.47394C45.7526 7.37897 45.4276 7.32443 44.9398 7.29687L42.0255 7.29343L42.0274 5.4937L46.7986 5.49916C47.0427 5.49949 47.2326 5.43208 47.3547 5.28322C47.4363 5.17538 47.4904 5.02646 47.4906 4.80987C47.4909 4.5394 47.4373 4.3635 47.3286 4.28205C47.2203 4.17356 47.0445 4.11935 46.8005 4.11909L42.0292 4.11357L42.0305 2.94969C42.0307 2.73311 41.9497 2.55727 41.8006 2.42155C41.6923 2.3269 41.503 2.27237 41.2453 2.27204C40.9469 2.27178 40.757 2.32567 40.6622 2.42038C40.5128 2.58275 40.4449 2.7582 40.4447 2.94787L40.4434 4.11175L35.889 4.10648C35.6586 4.10622 35.4822 4.16011 35.3603 4.26821C35.2517 4.38989 35.1974 4.56546 35.1971 4.79544C35.1968 5.05285 35.2505 5.22895 35.3591 5.32365C35.4809 5.43208 35.6568 5.48629 35.8872 5.48662L40.4415 5.49182L40.4397 7.29167L36.3058 7.28706C36.1023 7.28673 35.9529 7.34068 35.8446 7.43533C35.7224 7.55662 35.6681 7.719 35.6678 7.92213C35.6675 8.13866 35.708 8.30103 35.816 8.40952C35.8838 8.54492 36.0465 8.59946 36.3042 8.59979L36.914 8.60037C36.7918 8.72199 36.7375 8.88404 36.7372 9.08717C36.7504 9.30376 36.9265 9.58802 37.2785 9.95386C38.1177 10.8753 38.9165 11.5934 39.6747 12.1353C38.509 12.567 37.0714 13.0122 35.3497 13.4701C35.1597 13.578 35.078 13.7946 35.0778 14.1058C35.0774 14.2409 35.1453 14.3898 35.2806 14.5255C35.4162 14.661 35.6055 14.7424 35.8225 14.7427C36.2293 14.7158 36.8256 14.5951 37.5985 14.3659C38.9819 13.9208 40.1749 13.4756 41.2056 13.0437C46.0241 15.3303 56.1277 14.7121 56.6699 14.7127C57.2121 14.6591 57.6052 14.5378 57.8495 14.3623C58.1207 14.1459 58.2701 13.8755 58.2705 13.5507L58.2787 6.40569L59.3362 6.40692C59.6071 6.40718 59.7971 6.33984 59.9192 6.17772C59.987 6.09628 60.0278 5.92044 60.0281 5.67688C60.0284 5.36558 59.9612 5.16284 59.8391 5.08165Z" fill="#333333"/>
<path fill-rule="evenodd" clip-rule="evenodd" d="M54.0576 11.3401C54.1255 11.3943 54.2338 11.4213 54.3964 11.4215C54.6269 11.4219 54.803 11.3683 54.9389 11.2329C55.0337 11.1516 55.0884 11.03 55.0884 10.8407C55.0889 10.4348 54.9404 9.94709 54.6701 9.3516C54.1831 8.37675 53.7907 7.7539 53.5065 7.45586C53.3439 7.34711 53.168 7.27938 52.9781 7.25208C52.8425 7.25182 52.7207 7.27905 52.6121 7.31922C52.4629 7.40041 52.3542 7.49473 52.2861 7.61668C52.2456 7.72478 52.2321 7.80603 52.2318 7.88715C52.2318 8.02255 52.2724 8.13072 52.3398 8.23921C53.0431 9.51209 53.5574 10.4734 53.868 11.1097C53.9223 11.2181 53.9766 11.2993 54.0576 11.3401Z" fill="#333333"/>
</svg>
