<svg id="圖層_1" data-name="圖層 1" xmlns="http://www.w3.org/2000/svg" viewBox="0 0 299 83.71"><defs><style>.cls-1{fill:#08bf5b;}.cls-2{fill:#fff;}</style></defs><title>Line_pay_logo</title><path d="M48.48,18.46H41.2a2,2,0,0,0-2,1.95V63.9a2,2,0,0,0,2,1.94h7.28a2,2,0,0,0,2-1.94V20.41A2,2,0,0,0,48.48,18.46Z" transform="translate(0.03 -0.29)"/><path d="M30.89,55H11.29V20.41a2,2,0,0,0-2-1.95H2a2,2,0,0,0-2,1.95V63.9a2,2,0,0,0,2,1.94h28.9a2,2,0,0,0,2-1.94v-7A2,2,0,0,0,30.89,55Z" transform="translate(0.03 -0.29)"/><path d="M139,29.34a2,2,0,0,0,2-1.95v-7a2,2,0,0,0-2-1.95H110.12a2,2,0,0,0-2,1.95V63.9a2,2,0,0,0,2,1.94H139a2,2,0,0,0,2-1.94v-7A2,2,0,0,0,139,55H119.42V47.59H139a2,2,0,0,0,2-1.94v-7a2,2,0,0,0-2-1.95H119.42V29.34Z" transform="translate(0.03 -0.29)"/><path d="M98.4,18.46H91.12a2,2,0,0,0-2,1.95V45.57l-19-26.15a2.54,2.54,0,0,0-2.24-1,1.93,1.93,0,0,0-.34,0H60.2a2,2,0,0,0-2,1.95V63.9a2,2,0,0,0,2,1.94h7.28a2,2,0,0,0,2-1.94V37.61L89.35,64.88a2.39,2.39,0,0,0,1.63,1H98.4a2,2,0,0,0,2-1.94V20.41A2,2,0,0,0,98.4,18.46Z" transform="translate(0.03 -0.29)"/><rect class="cls-1" x="160.08" width="138.92" height="83.71" rx="6.62"/><path class="cls-2" d="M210.13,32.94c0,7.35-6.16,13.26-14.1,13.26h-6V57.07a1.33,1.33,0,0,1-1.36,1.3h-6.5a1.33,1.33,0,0,1-1.35-1.3V21a1.33,1.33,0,0,1,1.35-1.3H196C204,19.67,210.13,25.58,210.13,32.94Zm-9.21,0A4.82,4.82,0,0,0,196,28h-6v9.95h6A4.81,4.81,0,0,0,200.92,32.94Z" transform="translate(0.03 -0.29)"/><path class="cls-2" d="M244.33,31.41V57.68a.7.7,0,0,1-.71.69h-7.21a.7.7,0,0,1-.71-.69V55.77c-1.9,2.1-4.72,3.37-8.58,3.37-7.54,0-13.76-6.36-13.76-14.59S219.58,30,227.12,30c3.86,0,6.68,1.27,8.58,3.37V31.41a.7.7,0,0,1,.71-.69h7.21A.7.7,0,0,1,244.33,31.41ZM235.7,44.55c0-4.15-2.88-6.75-6.85-6.75S222,40.4,222,44.55s2.87,6.74,6.85,6.74S235.7,48.69,235.7,44.55Z" transform="translate(0.03 -0.29)"/><path class="cls-2" d="M273.06,31.44l-6.62,16-6.86-16a1.18,1.18,0,0,0-1.1-.71h-7.34a.69.69,0,0,0-.66,1l11.43,26.77-4.17,10.08a.69.69,0,0,0,.66.94h7.35a1.2,1.2,0,0,0,1.11-.72l15.32-37.08a.69.69,0,0,0-.66-.94h-7.35A1.2,1.2,0,0,0,273.06,31.44Z" transform="translate(0.03 -0.29)"/></svg>