<svg width="26" height="25" viewBox="0 0 26 25" fill="none" xmlns="http://www.w3.org/2000/svg">
<path fill-rule="evenodd" clip-rule="evenodd" d="M26 10.6462C26 4.77629 20.1655 0 13 0C5.83442 0 0 4.77629 0 10.6462C0 15.905 4.62291 20.3114 10.8718 21.1478C12.3942 21.4776 12.2189 22.0407 11.8766 24.1068C11.8207 24.4366 11.6134 25.4014 13.0004 24.8147C14.3873 24.228 20.4848 20.3681 23.2186 17.2C25.0993 15.109 26 12.9945 26 10.6462ZM16.8897 8.06507V13.7822C16.8901 13.8161 16.8838 13.8498 16.8711 13.8812C16.8585 13.9127 16.8397 13.9412 16.8159 13.9652C16.7921 13.9892 16.7638 14.0081 16.7327 14.0209C16.7015 14.0337 16.6681 14.04 16.6345 14.0396H15.7259C15.6857 14.0392 15.6462 14.0296 15.6103 14.0115C15.5743 13.9934 15.543 13.9672 15.5186 13.935L12.9202 10.3969V13.7902C12.9207 13.8241 12.9144 13.8578 12.9017 13.8893C12.889 13.9207 12.8703 13.9493 12.8465 13.9733C12.8227 13.9972 12.7944 14.0162 12.7632 14.029C12.7321 14.0417 12.6987 14.0481 12.665 14.0476H11.756C11.7224 14.0481 11.689 14.0418 11.6578 14.029C11.6266 14.0162 11.5983 13.9973 11.5745 13.9733C11.5507 13.9493 11.532 13.9207 11.5193 13.8893C11.5067 13.8578 11.5004 13.8241 11.5008 13.7902V8.07311C11.5004 8.03918 11.5067 8.0055 11.5193 7.97406C11.532 7.94263 11.5508 7.91407 11.5746 7.89007C11.5983 7.86608 11.6267 7.84713 11.6578 7.83436C11.689 7.82158 11.7224 7.81523 11.756 7.81569H12.6571C12.6983 7.81494 12.739 7.82491 12.7753 7.84464C12.8116 7.86436 12.8423 7.89317 12.8644 7.92831L15.4628 11.4663V8.07311C15.4624 8.03918 15.4687 8.0055 15.4814 7.97406C15.494 7.94263 15.5128 7.91407 15.5366 7.89007C15.5604 7.86608 15.5887 7.84713 15.6198 7.83436C15.651 7.82158 15.6844 7.81523 15.718 7.81569H16.6266C16.6602 7.8142 16.6938 7.81951 16.7253 7.83132C16.7569 7.84312 16.7857 7.86117 16.8103 7.88441C16.8348 7.90765 16.8545 7.93561 16.8681 7.96664C16.8818 7.99766 16.8891 8.03113 16.8897 8.06507V8.06507H16.8897ZM10.3538 7.80764H9.4447C9.41107 7.80719 9.37768 7.81353 9.34652 7.82631C9.31536 7.83909 9.28705 7.85803 9.26326 7.88203C9.23948 7.90602 9.2207 7.93458 9.20804 7.96602C9.19537 7.99746 9.18908 8.03114 9.18953 8.06507V13.7822C9.18907 13.8161 9.19535 13.8498 9.20801 13.8812C9.22067 13.9127 9.23945 13.9412 9.26324 13.9652C9.28703 13.9892 9.31534 14.0082 9.34651 14.0209C9.37768 14.0337 9.41106 14.0401 9.4447 14.0396H10.3538C10.3874 14.04 10.4208 14.0337 10.4519 14.0209C10.4831 14.0081 10.5114 13.9892 10.5352 13.9652C10.559 13.9412 10.5778 13.9127 10.5904 13.8812C10.6031 13.8498 10.6094 13.8161 10.6089 13.7822V8.06507C10.6085 7.99694 10.5814 7.93173 10.5337 7.88355C10.4859 7.83537 10.4213 7.8081 10.3538 7.80764V7.80764ZM8.16183 12.6003H5.68299V8.06507C5.68344 8.03114 5.67715 7.99746 5.66449 7.96602C5.65182 7.93458 5.63304 7.90602 5.60926 7.88203C5.58547 7.85803 5.55716 7.83909 5.526 7.82631C5.49484 7.81353 5.46146 7.80719 5.42782 7.80764H4.51933C4.4857 7.80719 4.45231 7.81353 4.42115 7.82631C4.38999 7.83909 4.36168 7.85803 4.33789 7.88203C4.31411 7.90602 4.29533 7.93458 4.28266 7.96602C4.27 7.99746 4.26371 8.03114 4.26416 8.06507V13.7822C4.26323 13.8151 4.26914 13.8478 4.28149 13.8783C4.29385 13.9088 4.31239 13.9363 4.33593 13.9591C4.38374 14.004 4.4461 14.0297 4.51136 14.0316H8.15385C8.18749 14.032 8.22087 14.0257 8.25203 14.0129C8.28319 14.0001 8.3115 13.9812 8.33529 13.9572C8.35907 13.9332 8.37785 13.9046 8.39052 13.8732C8.40318 13.8417 8.40947 13.8081 8.40902 13.7741V12.8578C8.40906 12.7909 8.38327 12.7266 8.33713 12.6785C8.29098 12.6305 8.22811 12.6024 8.16183 12.6003V12.6003ZM21.672 7.80788H18.0294C17.9619 7.80832 17.8972 7.83559 17.8494 7.88377C17.8017 7.93195 17.7747 7.99717 17.7742 8.06531V13.7824C17.7746 13.8506 17.8017 13.9158 17.8494 13.964C17.8972 14.0122 17.9618 14.0394 18.0294 14.0398H21.672C21.7056 14.0403 21.739 14.0339 21.7701 14.0212C21.8013 14.0084 21.8296 13.9894 21.8534 13.9654C21.8772 13.9415 21.896 13.9129 21.9086 13.8815C21.9213 13.85 21.9276 13.8163 21.9271 13.7824V12.8658C21.9276 12.8319 21.9213 12.7982 21.9086 12.7668C21.896 12.7353 21.8772 12.7068 21.8534 12.6828C21.8296 12.6588 21.8013 12.6398 21.7701 12.6271C21.739 12.6143 21.7056 12.6079 21.672 12.6084H19.1931V11.643H21.672C21.7056 11.6435 21.739 11.6371 21.7701 11.6244C21.8013 11.6116 21.8296 11.5927 21.8534 11.5687C21.8772 11.5447 21.896 11.5161 21.9086 11.4847C21.9213 11.4532 21.9276 11.4195 21.9271 11.3856V10.4605C21.9276 10.4266 21.9213 10.3929 21.9086 10.3615C21.8959 10.33 21.8772 10.3015 21.8534 10.2775C21.8296 10.2535 21.8013 10.2345 21.7701 10.2218C21.739 10.209 21.7056 10.2026 21.672 10.2031H19.1931V9.23772H21.672C21.7056 9.23818 21.739 9.23183 21.7701 9.21905C21.8013 9.20627 21.8296 9.18733 21.8534 9.16333C21.8772 9.13934 21.896 9.11078 21.9086 9.07934C21.9213 9.0479 21.9276 9.01423 21.9271 8.9803V8.06507C21.924 7.99782 21.8961 7.93416 21.8489 7.88656C21.8017 7.83895 21.7386 7.81081 21.672 7.80764V7.80764V7.80788Z" fill="white"/>
</svg>
