<?xml version="1.0" encoding="utf-8"?>
<!-- Generator: Adobe Illustrator 24.1.0, SVG Export Plug-In . SVG Version: 6.00 Build 0)  -->
<svg version="1.1" id="圖層_1" xmlns="http://www.w3.org/2000/svg" xmlns:xlink="http://www.w3.org/1999/xlink" x="0px" y="0px"
	 viewBox="0 0 299 83.7" style="enable-background:new 0 0 299 83.7;" xml:space="preserve">
<style type="text/css">
	.st0{fill:#FFFFFF;}
	.st1{fill:#08BF5B;}
</style>
<path class="st0" d="M48.5,18.2h-7.3c-1.1,0-2,0.9-2,2v43.5c0,1.1,0.9,1.9,2,1.9h7.3c1.1,0,2-0.9,2-1.9V20.1
	C50.5,19,49.6,18.2,48.5,18.2z"/>
<path class="st0" d="M30.9,54.7H11.3V20.1c0-1.1-0.9-2-2-2H2c-1.1,0-2,0.9-2,2v43.5c0,1.1,0.9,1.9,2,1.9h28.9c1.1,0,2-0.9,2-1.9v-7
	C32.9,55.5,32,54.7,30.9,54.7z"/>
<path class="st0" d="M139,29c1.1,0,2-0.9,2-2v-7c0-1.1-0.9-2-2-2h-28.9c-1.1,0-2,0.9-2,2v43.5c0,1.1,0.9,1.9,2,1.9H139
	c1.1,0,2-0.9,2-1.9v-7c-0.1-1.1-0.9-1.9-2-1.9h-19.6v-7.4H139c1.1,0,2-0.9,2-1.9v-7c0-1.1-0.9-2-2-2h-19.6V29H139z"/>
<path class="st0" d="M98.4,18.2h-7.3c-1.1,0-2,0.9-2,2v25.2l-19-26.1c-0.5-0.7-1.4-1.1-2.2-1c-0.1,0-0.2,0-0.3,0h-7.3
	c-1.1,0-2,0.9-2,2v43.5c0,1.1,0.9,1.9,2,1.9h7.3c1.1,0,2-0.9,2-1.9V37.3l19.9,27.3c0.4,0.5,1,0.9,1.6,1h7.4c1.1,0,2-0.9,2-1.9V20.1
	C100.4,19,99.5,18.2,98.4,18.2z"/>
<path class="st1" d="M166.7,0h125.7c3.7,0,6.6,3,6.6,6.6v70.5c0,3.7-3,6.6-6.6,6.6H166.7c-3.7,0-6.6-3-6.6-6.6V6.6
	C160.1,3,163,0,166.7,0z"/>
<path class="st0" d="M210.2,32.6c0,7.3-6.2,13.3-14.1,13.3h-6v10.9c0,0.7-0.6,1.3-1.4,1.3c0,0,0,0,0,0h-6.5c-0.7,0-1.3-0.6-1.4-1.3
	V20.7c0-0.7,0.6-1.3,1.4-1.3H196C204,19.4,210.2,25.3,210.2,32.6z M200.9,32.6c0.1-2.7-2-4.9-4.7-4.9c-0.1,0-0.1,0-0.2,0h-6v10h6
	c2.7,0.1,4.9-2,4.9-4.7C201,32.9,201,32.8,200.9,32.6z"/>
<path class="st0" d="M244.4,31.1v26.3c0,0.4-0.3,0.7-0.7,0.7c0,0,0,0,0,0h-7.2c-0.4,0-0.7-0.3-0.7-0.7c0,0,0,0,0,0v-1.9
	c-1.9,2.1-4.7,3.4-8.6,3.4c-7.5,0-13.8-6.4-13.8-14.6s6.2-14.5,13.8-14.5c3.9,0,6.7,1.3,8.6,3.4v-2c0-0.4,0.3-0.7,0.7-0.7
	c0,0,0,0,0,0h7.2C244,30.4,244.4,30.7,244.4,31.1C244.4,31.1,244.4,31.1,244.4,31.1z M235.7,44.3c0-4.2-2.9-6.8-6.9-6.8
	s-6.8,2.6-6.8,6.8s2.9,6.7,6.9,6.7S235.7,48.4,235.7,44.3z"/>
<path class="st0" d="M273.1,31.1l-6.6,16l-6.9-16c-0.2-0.4-0.6-0.7-1.1-0.7h-7.3c-0.4,0-0.7,0.3-0.7,0.6c0,0.1,0,0.2,0.1,0.4
	l11.4,26.8l-4.2,10.1c-0.1,0.4,0,0.8,0.4,0.9c0.1,0,0.2,0,0.3,0h7.4c0.5,0,0.9-0.3,1.1-0.7l15.3-37.1c0.1-0.4,0-0.8-0.4-0.9
	c-0.1,0-0.2,0-0.3,0h-7.4C273.7,30.5,273.3,30.7,273.1,31.1z"/>
</svg>
