<svg width="17" height="4" viewBox="0 0 17 4" fill="none" xmlns="http://www.w3.org/2000/svg">
<path d="M4 2C4 3.10457 3.10457 4 2 4C0.89543 4 0 3.10457 0 2C0 0.895431 0.89543 0 2 0C3.10457 0 4 0.895431 4 2Z" fill="#4285F4"/>
<path d="M10.4 2C10.4 3.10457 9.50457 4 8.4 4C7.29543 4 6.4 3.10457 6.4 2C6.4 0.895431 7.29543 0 8.4 0C9.50457 0 10.4 0.895431 10.4 2Z" fill="#4285F4"/>
<path d="M16.8 2C16.8 3.10457 15.9046 4 14.8 4C13.6954 4 12.8 3.10457 12.8 2C12.8 0.895431 13.6954 0 14.8 0C15.9046 0 16.8 0.895431 16.8 2Z" fill="#4285F4"/>
</svg>
