<svg width="150" height="150" viewBox="0 0 150 150" fill="none" xmlns="http://www.w3.org/2000/svg">
<circle cx="75" cy="75" r="74.5" stroke="#554725"/>
<path d="M48.6726 45.4815C48.6726 44.111 49.7819 43 51.1504 43H98.2301C99.5986 43 100.708 44.111 100.708 45.4815C100.708 46.852 99.5986 47.963 98.2301 47.963H51.1504C49.7819 47.963 48.6726 46.852 48.6726 45.4815Z" fill="#554725"/>
<path d="M51.8748 50.4444C49.8919 50.4444 48.0582 51.4992 47.059 53.2145L40.5978 64.307C40.2063 64.9791 40 65.7434 40 66.5215C40 68.9489 41.9649 70.9167 44.3887 70.9167H105.611C108.035 70.9167 110 68.9489 110 66.5215C110 65.7434 109.794 64.9791 109.402 64.307L102.941 53.2145C101.942 51.4992 100.108 50.4444 98.1252 50.4444H51.8748Z" fill="#554725"/>
<path fill-rule="evenodd" clip-rule="evenodd" d="M96.9911 74.0185H74.6903H52.3894L47.4336 74.0185V104.417C47.4336 107.5 49.9297 110 53.0089 110H96.3717C99.4508 110 101.947 107.5 101.947 104.417V74.0185L96.9911 74.0185ZM96.9911 74.0185H74.6903H52.3894V99.4537C52.3894 102.537 54.8855 105.037 57.9646 105.037H91.4159C94.495 105.037 96.9911 102.537 96.9911 99.4537V74.0185Z" fill="#554725"/>
<path d="M72.5473 93.7549C72.5703 92.3854 72.7256 91.3036 73.0134 90.5095C73.3011 89.7154 73.888 88.835 74.7741 87.8683L77.0355 85.5379C78.0023 84.4446 78.4856 83.2707 78.4856 82.0163C78.4856 80.8079 78.1691 79.8642 77.5362 79.1852C76.9032 78.4947 75.9825 78.1495 74.7741 78.1495C73.6003 78.1495 72.6566 78.4602 71.9431 79.0816C71.2295 79.7031 70.8728 80.5375 70.8728 81.5847H67.6792C67.7022 79.7204 68.364 78.2185 69.6644 77.0792C70.9764 75.9283 72.6796 75.3529 74.7741 75.3529C76.9492 75.3529 78.641 75.9398 79.8494 77.1137C81.0693 78.276 81.6792 79.8757 81.6792 81.9127C81.6792 83.9267 80.747 85.9119 78.8827 87.8683L77.001 89.7327C76.1609 90.6649 75.7409 92.0056 75.7409 93.7549H72.5473ZM72.4092 99.2271C72.4092 98.7093 72.5645 98.2777 72.8753 97.9324C73.1975 97.5757 73.6693 97.3973 74.2908 97.3973C74.9122 97.3973 75.3841 97.5757 75.7063 97.9324C76.0286 98.2777 76.1897 98.7093 76.1897 99.2271C76.1897 99.745 76.0286 100.177 75.7063 100.522C75.3841 100.856 74.9122 101.022 74.2908 101.022C73.6693 101.022 73.1975 100.856 72.8753 100.522C72.5645 100.177 72.4092 99.745 72.4092 99.2271Z" fill="#554725"/>
</svg>
