<svg width="150" height="150" viewBox="0 0 150 150" fill="none" xmlns="http://www.w3.org/2000/svg">
<circle cx="75" cy="75" r="74.5" stroke="#E5E5E5"/>
<path d="M48.6726 44.4815C48.6726 43.111 49.7819 42 51.1504 42H98.2301C99.5986 42 100.708 43.111 100.708 44.4815C100.708 45.852 99.5986 46.963 98.2301 46.963H51.1504C49.7819 46.963 48.6726 45.852 48.6726 44.4815Z" fill="#E5E5E5"/>
<path d="M51.8748 49.4444C49.8919 49.4444 48.0582 50.4992 47.059 52.2145L40.5978 63.307C40.2063 63.9791 40 64.7434 40 65.5215C40 67.9489 41.9649 69.9167 44.3887 69.9167H105.611C108.035 69.9167 110 67.9489 110 65.5215C110 64.7434 109.794 63.9791 109.402 63.307L102.941 52.2145C101.942 50.4992 100.108 49.4444 98.1252 49.4444H51.8748Z" fill="#E5E5E5"/>
<path fill-rule="evenodd" clip-rule="evenodd" d="M96.9911 73.0185H52.3894L47.4336 73.0185V103.417C47.4336 106.5 49.9297 109 53.0089 109H96.3717C99.4508 109 101.947 106.5 101.947 103.417V73.0185L96.9911 73.0185ZM96.9911 73.0185H52.3894V98.4537C52.3894 101.537 54.8855 104.037 57.9646 104.037H91.4159C94.495 104.037 96.9911 101.537 96.9911 98.4537V73.0185Z" fill="#E5E5E5"/>
<path d="M80.1752 78.4644C80.1752 77.1831 80.8742 75.9551 82.272 74.7805C83.6699 73.6058 85.2724 73.0185 87.0796 73.0185V100.315H83.6598V89.4217H80.1752V78.4644ZM73.3355 82.5652V73.0185H76.0464V82.5652C76.0464 84.0178 75.5516 85.2671 74.5622 86.3133C73.5728 87.3594 72.3466 87.9254 70.8835 88.011V100.313H67.4637V88.011C66.0007 87.9254 64.7744 87.3594 63.785 86.3133C62.7956 85.2671 62.3009 84.0178 62.3009 82.5652V73.0185H65.0764V82.5652H67.7872V73.0185H70.5628V82.5652H73.3383H73.3355Z" fill="#E5E5E5"/>
</svg>
