<svg width="150" height="150" viewBox="0 0 150 150" fill="none" xmlns="http://www.w3.org/2000/svg">
<circle cx="75" cy="75" r="74.5" stroke="#554725"/>
<path d="M48.6726 45.4815C48.6726 44.111 49.7819 43 51.1504 43H98.2301C99.5986 43 100.708 44.111 100.708 45.4815C100.708 46.852 99.5986 47.963 98.2301 47.963H51.1504C49.7819 47.963 48.6726 46.852 48.6726 45.4815Z" fill="#554725"/>
<path d="M51.8748 50.4444C49.8919 50.4444 48.0582 51.4992 47.059 53.2145L40.5978 64.307C40.2063 64.9791 40 65.7434 40 66.5215C40 68.9489 41.9649 70.9167 44.3887 70.9167H105.611C108.035 70.9167 110 68.9489 110 66.5215C110 65.7434 109.794 64.9791 109.402 64.307L102.941 53.2145C101.942 51.4992 100.108 50.4444 98.1252 50.4444H51.8748Z" fill="#554725"/>
<path fill-rule="evenodd" clip-rule="evenodd" d="M96.9911 74.0185H52.3894L47.4336 74.0185V104.417C47.4336 107.5 49.9297 110 53.0089 110H96.3717C99.4508 110 101.947 107.5 101.947 104.417V74.0185L96.9911 74.0185ZM96.9911 74.0185H52.3894V99.4537C52.3894 102.537 54.8855 105.037 57.9646 105.037H91.4159C94.495 105.037 96.9911 102.537 96.9911 99.4537V74.0185Z" fill="#554725"/>
<path d="M80.1752 79.4644C80.1752 78.1831 80.8742 76.9551 82.272 75.7805C83.6699 74.6058 85.2724 74.0185 87.0796 74.0185V101.315H83.6598V90.4217H80.1752V79.4644ZM73.3355 83.5652V74.0185H76.0464V83.5652C76.0464 85.0178 75.5516 86.2671 74.5622 87.3133C73.5728 88.3594 72.3466 88.9254 70.8835 89.011V101.313H67.4637V89.011C66.0007 88.9254 64.7744 88.3594 63.785 87.3133C62.7956 86.2671 62.3009 85.0178 62.3009 83.5652V74.0185H65.0764V83.5652H67.7872V74.0185H70.5628V83.5652H73.3383H73.3355Z" fill="#554725"/>
</svg>
