<svg width="150" height="150" viewBox="0 0 150 150" fill="none" xmlns="http://www.w3.org/2000/svg">
<circle cx="75" cy="75" r="74.5" stroke="#E5E5E5"/>
<path d="M48.6726 44.4815C48.6726 43.111 49.7819 42 51.1504 42H98.2301C99.5986 42 100.708 43.111 100.708 44.4815C100.708 45.852 99.5986 46.963 98.2301 46.963H51.1504C49.7819 46.963 48.6726 45.852 48.6726 44.4815Z" fill="#E5E5E5"/>
<path d="M51.8748 49.4444C49.8919 49.4444 48.0582 50.4992 47.059 52.2145L40.5978 63.307C40.2063 63.9791 40 64.7434 40 65.5215C40 67.9489 41.9649 69.9167 44.3887 69.9167H105.611C108.035 69.9167 110 67.9489 110 65.5215C110 64.7434 109.794 63.9791 109.402 63.307L102.941 52.2145C101.942 50.4992 100.108 49.4444 98.1252 49.4444H51.8748Z" fill="#E5E5E5"/>
<path fill-rule="evenodd" clip-rule="evenodd" d="M96.9911 73.0185H74.6903H52.3894L47.4336 73.0185V103.417C47.4336 106.5 49.9297 109 53.0089 109H96.3717C99.4508 109 101.947 106.5 101.947 103.417V73.0185L96.9911 73.0185ZM96.9911 73.0185H74.6903H52.3894V98.4537C52.3894 101.537 54.8855 104.037 57.9646 104.037H91.4159C94.495 104.037 96.9911 101.537 96.9911 98.4537V73.0185Z" fill="#E5E5E5"/>
<path d="M72.5473 92.7549C72.5703 91.3854 72.7256 90.3036 73.0134 89.5095C73.3011 88.7154 73.888 87.835 74.7741 86.8683L77.0355 84.5379C78.0023 83.4446 78.4856 82.2707 78.4856 81.0163C78.4856 79.8079 78.1691 78.8642 77.5362 78.1852C76.9032 77.4947 75.9825 77.1495 74.7741 77.1495C73.6003 77.1495 72.6566 77.4602 71.9431 78.0816C71.2295 78.7031 70.8728 79.5375 70.8728 80.5847H67.6792C67.7022 78.7204 68.364 77.2185 69.6644 76.0792C70.9764 74.9283 72.6796 74.3529 74.7741 74.3529C76.9492 74.3529 78.641 74.9398 79.8494 76.1137C81.0693 77.276 81.6792 78.8757 81.6792 80.9127C81.6792 82.9267 80.747 84.9119 78.8827 86.8683L77.001 88.7327C76.1609 89.6649 75.7409 91.0056 75.7409 92.7549H72.5473ZM72.4092 98.2271C72.4092 97.7093 72.5645 97.2777 72.8753 96.9324C73.1975 96.5757 73.6693 96.3973 74.2908 96.3973C74.9122 96.3973 75.3841 96.5757 75.7063 96.9324C76.0286 97.2777 76.1897 97.7093 76.1897 98.2271C76.1897 98.745 76.0286 99.1766 75.7063 99.5218C75.3841 99.8556 74.9122 100.022 74.2908 100.022C73.6693 100.022 73.1975 99.8556 72.8753 99.5218C72.5645 99.1766 72.4092 98.745 72.4092 98.2271Z" fill="#E5E5E5"/>
</svg>
