<svg width="25" height="47" viewBox="0 0 25 47" fill="none" xmlns="http://www.w3.org/2000/svg">
<path fill-rule="evenodd" clip-rule="evenodd" d="M25 23.8708L21.8561 20.7692L21.8577 13.1246C21.8587 10.7205 21.2375 8.62923 19.9941 6.85077C18.7507 5.07231 17.0326 3.91846 14.84 3.38923V2.3077C14.84 1.68103 14.6206 1.14 14.1819 0.684619C13.7432 0.229234 13.1828 0.00102908 12.5008 3.44175e-06C11.8188 -0.0010222 11.2584 0.227183 10.8197 0.684619C10.3809 1.14205 10.1616 1.68308 10.1616 2.3077V3.38923C7.9679 3.91846 6.24987 5.07231 5.00749 6.85077C3.7651 8.62923 3.14391 10.7205 3.14391 13.1246V20.7692L0 23.8708V25.3846H25V23.8708ZM10.2692 29.1338C10.8784 29.7113 11.6218 30 12.4992 30C13.3278 30 14.0587 29.6995 14.6918 29.0985C15.325 28.4974 15.6416 27.7882 15.6416 26.9708H9.35531C9.35531 27.8354 9.65993 28.5564 10.2692 29.1338ZM12.2041 36.5294C11.5366 36.5294 10.8916 36.4364 10.2692 36.2504C9.64983 36.0644 9.08605 35.7824 8.57789 35.4042C8.06673 35.0261 7.71343 34.6312 7.51799 34.2196L8.12687 34C8.47566 34.4574 9.00787 34.8188 9.7235 35.084C10.4421 35.3524 11.2615 35.4866 12.1816 35.4866H12.2853C13.1212 35.4866 13.8819 35.3707 14.5675 35.1389C15.2561 34.9072 15.8078 34.5748 16.2228 34.1418L16.349 34L16.9624 34.2196C16.776 34.6099 16.4453 34.988 15.9702 35.3539C15.4951 35.7198 14.9629 36.0004 14.3736 36.1955C13.7872 36.3907 13.1813 36.5005 12.5559 36.5249L12.2041 36.5294ZM12.3196 41.8536C11.3851 41.8536 10.4821 41.7234 9.61074 41.463C8.74357 41.2026 7.95428 40.8077 7.24286 40.2783C6.52724 39.749 6.03261 39.1961 5.75899 38.6198L6.61143 38.3124C7.09974 38.9528 7.84483 39.4587 8.8467 39.8301C9.85279 40.2058 10.9999 40.3936 12.288 40.3936H12.4332C13.6035 40.3936 14.6685 40.2314 15.6283 39.9069C16.5923 39.5825 17.3647 39.1171 17.9457 38.5109L18.1225 38.3124L18.9812 38.6198C18.7202 39.1662 18.2572 39.6956 17.5921 40.2079C16.927 40.7202 16.1819 41.113 15.3568 41.3862C14.5359 41.6594 13.6877 41.8131 12.8121 41.8472L12.3196 41.8536ZM8.95224 46.4978C10.0726 46.8326 11.2335 47 12.4351 47L13.0683 46.9918C14.194 46.9479 15.2846 46.7503 16.34 46.399C17.4008 46.0477 18.3588 45.5427 19.2139 44.884C20.0691 44.2254 20.6644 43.5448 21 42.8422L19.8959 42.447L19.6686 42.7022C18.9217 43.4816 17.9285 44.0799 16.6891 44.4971C15.4551 44.9142 14.0858 45.1228 12.5812 45.1228H12.3945C10.7383 45.1228 9.26345 44.8813 7.96991 44.3983C6.68179 43.9208 5.72381 43.2703 5.09599 42.447L4 42.8422C4.3518 43.5832 4.98774 44.294 5.90783 44.9746C6.82251 45.6552 7.83731 46.1629 8.95224 46.4978Z" fill="white"/>
</svg>
