<svg width="18" height="20" viewBox="0 0 18 20" fill="none" xmlns="http://www.w3.org/2000/svg">
<path d="M15.3593 13.8462L17.427 15.9138V16.9231H0.984985V15.9138L3.05268 13.8462V8.74975C3.05268 7.14701 3.46122 5.75282 4.27832 4.56718C5.09541 3.38154 6.22533 2.61231 7.66806 2.25949V1.53846C7.66806 1.12205 7.81234 0.76137 8.10088 0.456412C8.38943 0.151455 8.75798 -0.000681466 9.20652 2.2945e-06C9.65507 0.000686055 10.0236 0.152823 10.3122 0.456412C10.6007 0.760002 10.745 1.12069 10.745 1.53846V2.25949C12.187 2.61231 13.3169 3.38154 14.1347 4.56718C14.9525 5.75282 15.3611 7.14701 15.3604 8.74975L15.3593 13.8462ZM9.2055 20C8.6284 20 8.13951 19.8075 7.73883 19.4226C7.33815 19.0376 7.13781 18.5569 7.13781 17.9805H11.2722C11.2722 18.5255 11.064 18.9983 10.6475 19.399C10.2311 19.7997 9.75045 20 9.2055 20Z" fill="#979797"/>
</svg>
