<svg width="98" height="84" viewBox="0 0 98 84" fill="none" xmlns="http://www.w3.org/2000/svg">
<path d="M79.7168 66.3884C79.7168 65.43 79.0456 64.7272 78.0867 64.7272C77.1278 64.7272 76.4246 65.43 76.4246 66.3884C76.4246 67.3148 77.1597 68.0495 78.0867 68.0495C79.0136 68.0815 79.7168 67.3467 79.7168 66.3884Z" fill="#5CBD36"/>
<path d="M81.5068 70.3815C81.5068 71.5316 81.5068 71.5316 82.8493 71.7552C82.8493 72.4001 82.8457 73.0378 82.8421 73.6695C82.835 74.9152 82.8281 76.1375 82.8493 77.3457C82.8538 77.6134 82.8507 77.8418 82.8482 78.0368C82.8415 78.5422 82.8378 78.8223 82.9752 78.9772C83.146 79.1698 83.535 79.1689 84.4074 79.167L84.7032 79.1665C85.8219 79.1665 85.9498 79.0388 85.9498 77.8568C85.9817 76.0998 85.9817 74.3108 85.9498 72.5219C85.9498 71.8191 86.1096 71.5316 86.8447 71.5955C87.1324 71.6274 87.6758 71.5316 87.7077 71.4038C87.8356 70.7329 87.8995 70.0301 87.8036 69.3912C87.7809 69.255 87.4351 69.1672 87.0993 69.0819C86.9627 69.0472 86.8278 69.0129 86.7169 68.976C86.589 68.928 86.4692 68.8801 86.3493 68.8322C86.2294 68.7843 86.1096 68.7364 85.9817 68.6884C86.0216 68.6167 86.0595 68.541 86.0979 68.4642C86.2133 68.2336 86.3333 67.9936 86.5251 67.8259C86.7169 67.6981 87.0365 67.6662 87.2922 67.6662C87.7717 67.6662 87.8995 67.4106 87.9315 66.9634C88.0593 65.0786 88.0274 65.0467 86.1096 65.1425C84.5434 65.2064 83.4566 66.037 83.0091 67.5384C82.8892 67.9577 82.8256 68.4051 82.7654 68.8279L82.7534 68.9121C81.5068 69.1357 81.5068 69.1357 81.5068 70.3815Z" fill="#5CBD36"/>
<path d="M48.1816 71.8953C48.1996 71.7288 48.2193 71.5462 48.233 71.3399C48.4887 71.6274 48.6485 71.8191 48.8083 72.0107C49.0331 72.3086 49.2587 72.6067 49.4844 72.9048L49.4872 72.9084C50.7368 74.5591 51.992 76.2172 53.1554 77.9207C53.8266 78.911 54.5618 79.3583 55.7764 79.2305C56.8312 79.1027 56.991 79.0388 56.991 77.9527V67.5704C56.991 67.3304 56.9974 67.1171 57.0032 66.928C57.0416 65.6571 57.0472 65.4703 54.8495 65.5259C54.1782 65.5578 53.8586 65.8134 53.8586 66.5481C53.8799 67.8246 53.8728 69.1153 53.8657 70.4107C53.8622 71.0603 53.8586 71.7114 53.8586 72.3622C53.8586 72.5594 53.8285 72.7567 53.789 73.0158C53.7709 73.1344 53.7508 73.266 53.7307 73.4164C53.4111 73.033 53.2513 72.8414 53.0915 72.6178C52.6892 72.0728 52.2845 71.5303 51.88 70.9882L51.8791 70.987C50.8376 69.5912 49.7981 68.198 48.8084 66.7717C48.1371 65.8134 47.402 65.3661 46.2193 65.4939C45.1965 65.5898 45.0367 65.6856 45.0367 66.7398V77.1221C45.0367 77.2742 45.036 77.415 45.0353 77.5455C45.031 78.3832 45.0289 78.7937 45.2329 78.9954C45.4287 79.189 45.8141 79.1907 46.5694 79.1941C46.7331 79.1948 46.9141 79.1957 47.1143 79.1985C47.8814 79.1985 48.1371 78.8791 48.1371 78.1443C48.1158 76.8878 48.1229 75.6313 48.13 74.3748C48.1336 73.7465 48.1371 73.1182 48.1371 72.49C48.1371 72.3081 48.1579 72.1156 48.1816 71.8953Z" fill="#5CBD36"/>
<path d="M24.8035 73.0969V72.2663C24.8035 71.6274 24.807 70.9885 24.8106 70.3496C24.8177 69.0718 24.8248 67.794 24.8035 66.5162C24.8035 65.7814 25.1231 65.5258 25.7943 65.4939C27.9658 65.4664 27.9626 65.5571 27.9192 66.8222C27.9121 67.0282 27.9039 67.2655 27.9039 67.5384V78.0804C27.9039 79.0707 27.7761 79.1027 26.7852 79.1985C25.5706 79.2943 24.7715 78.9429 24.0683 77.8887C22.9616 76.2425 21.7513 74.6583 20.5374 73.0696C20.2438 72.6853 19.95 72.3007 19.6574 71.9149C19.5934 71.8297 19.5153 71.7446 19.3851 71.6026C19.32 71.5316 19.2418 71.4464 19.1459 71.3399C19.1362 71.4756 19.1265 71.5965 19.1177 71.7064C19.0975 71.9586 19.082 72.1522 19.082 72.3302C19.082 72.9808 19.0784 73.6313 19.0749 74.2807C19.0678 75.5762 19.0607 76.8676 19.082 78.1443C19.082 78.911 18.7943 79.1985 18.0592 79.1665C17.8835 79.164 17.7224 79.1629 17.5747 79.1618C16.7823 79.1563 16.3751 79.1535 16.1666 78.9487C15.9467 78.7327 15.9475 78.2919 15.9493 77.3862C15.9494 77.3022 15.9496 77.2142 15.9496 77.122V66.7398C15.9496 65.6536 16.1094 65.5578 17.1962 65.4939C18.2829 65.43 18.9861 65.7175 19.6574 66.6759C20.7641 68.3222 21.9744 69.9063 23.1883 71.495C23.4819 71.8793 23.7757 72.2639 24.0683 72.6497C24.1962 72.8414 24.356 73.0011 24.5158 73.1608C24.6437 73.1608 24.7395 73.1289 24.8035 73.0969Z" fill="#5CBD36"/>
<path d="M97.9681 69.8065C97.8067 70.2902 97.6358 70.7691 97.4645 71.2487C97.1947 72.0046 96.9242 72.7624 96.6895 73.5442L96.3918 74.4874C95.5649 77.1062 94.7431 79.7086 93.9726 82.3611C93.8128 82.9042 93.5571 83.0639 93.0137 83.0639C90.9041 83.0958 90.7443 83.032 91.5114 81.1472C92.0548 79.8055 91.7991 78.6874 91.4156 77.4734C90.6484 75.0456 89.8813 72.6177 89.1461 70.1899C88.8265 69.1676 89.0183 68.9121 90.105 68.9121C90.3405 68.9121 90.5468 68.9092 90.7281 68.9066C91.3895 68.8973 91.7192 68.8926 91.9209 69.051C92.1213 69.2084 92.1953 69.5268 92.3428 70.1617C92.3874 70.3537 92.4387 70.5747 92.5023 70.8288C92.6461 71.3719 92.782 71.9229 92.9178 72.474C93.0537 73.025 93.1895 73.5761 93.3334 74.1192C93.3621 74.1192 93.3908 74.1256 93.4225 74.1327C93.4612 74.1414 93.5043 74.1511 93.5571 74.1511C93.5862 74.0929 93.6184 74.0376 93.6498 73.9835L93.6504 73.9825C93.7221 73.8589 93.7906 73.741 93.8128 73.608C93.9087 73.2034 94.0082 72.7987 94.1076 72.394C94.3065 71.5848 94.5054 70.7755 94.6758 69.9663C94.8356 69.1996 95.1872 68.7523 96.0183 68.8801C96.3379 68.928 96.6655 68.968 96.9932 69.0079C97.3208 69.0478 97.6484 69.0878 97.9681 69.1357V69.8065Z" fill="#5CBD36"/>
<path d="M33.0502 76.0678H37.9406C39.0273 76.0678 39.1232 76.1636 39.1232 77.2498C39.1232 77.4349 39.1252 77.6025 39.1269 77.7541C39.1347 78.415 39.1388 78.7736 38.9623 78.9681C38.7528 79.1988 38.2891 79.1987 37.2753 79.1985L31.0365 79.1985C30.1095 79.1985 29.9497 79.0387 29.9497 78.1443V66.58C29.9497 65.8453 30.2693 65.5577 30.9406 65.5577H38.1324C38.8356 65.5577 39.1872 65.8452 39.1552 66.6119C39.1481 66.8649 39.1453 67.0869 39.1429 67.2817C39.1344 67.9673 39.13 68.3154 38.9538 68.4904C38.772 68.671 38.4073 68.6673 37.6665 68.66C37.5004 68.6583 37.3155 68.6565 37.1095 68.6565C36.7473 68.6565 36.385 68.66 36.0228 68.6636C35.2983 68.6707 34.5738 68.6778 33.8493 68.6565C33.3059 68.6565 33.0502 68.8162 33.1141 69.3912C33.1461 69.5829 33.1461 69.7745 33.1141 69.9343C33.0182 70.6371 33.2739 70.8607 34.0091 70.8287C34.7946 70.7922 35.5906 70.7975 36.3852 70.8027C36.9807 70.8066 37.5755 70.8105 38.1643 70.7968C38.8995 70.7968 39.2191 71.0524 39.2191 71.851C39.2162 72.0621 39.2154 72.252 39.2147 72.4227C39.2114 73.2024 39.2098 73.5842 39.0182 73.7688C38.8343 73.9459 38.4755 73.9413 37.7722 73.9323C37.5953 73.93 37.3966 73.9275 37.1735 73.9275C36.8112 73.9275 36.4489 73.931 36.0867 73.9346C35.3622 73.9417 34.6377 73.9488 33.9132 73.9275C33.3378 73.8955 33.0821 74.0872 33.1461 74.6941C33.0821 75.0775 33.0502 75.4928 33.0502 76.0678Z" fill="#5CBD36"/>
<path fill-rule="evenodd" clip-rule="evenodd" d="M67.4576 75.0347C67.4908 74.7384 67.5239 74.442 67.5709 74.1511H67.3791C67.3791 73.9194 67.3878 73.6876 67.3965 73.4576C67.4166 72.9267 67.4363 72.4053 67.3471 71.9149C66.9636 70.0302 65.4293 68.7843 63.3197 68.7523C61.2101 68.7204 59.3243 69.7107 58.9727 72.1066C58.7809 73.4164 58.7809 74.79 58.9727 76.1317C59.2284 77.9526 60.6028 79.1666 62.3289 79.3582C64.5983 79.6138 66.2923 78.879 67.0275 77.0901C67.2984 76.4584 67.378 75.747 67.4576 75.0347ZM64.4455 73.608C64.442 73.7571 64.4384 73.9062 64.4384 74.0553C64.4384 74.2132 64.4419 74.371 64.4455 74.53V74.5321C64.4526 74.8549 64.4598 75.183 64.4384 75.5248C64.3745 76.3554 63.8951 76.8665 63.1599 76.8665C62.4247 76.8665 61.8814 76.3234 61.8494 75.4609C61.8174 74.5345 61.8174 73.64 61.8494 72.7455C61.8494 71.883 62.3608 71.3399 63.1279 71.3399C63.927 71.3399 64.3745 71.7872 64.4384 72.7136C64.4598 73.0117 64.4527 73.3099 64.4455 73.608Z" fill="#5CBD36"/>
<path d="M3.10046 76.0678H7.89498C9.07763 76.0678 9.10959 76.1317 9.10959 77.2817C9.10959 77.4303 9.11044 77.5675 9.11122 77.694C9.11583 78.442 9.11816 78.8202 8.93048 79.0102C8.73904 79.204 8.3499 79.2024 7.5638 79.1993C7.45797 79.1989 7.34444 79.1985 7.22374 79.1985H1.08676C0.127854 79.1985 0 79.0707 0 78.1762V66.6119C0 65.8453 0.319635 65.5577 1.02283 65.5577C3.06849 65.4939 3.10046 65.5258 3.10046 67.5703V76.0678Z" fill="#5CBD36"/>
<path d="M70.3444 74.4115C70.3373 73.7406 70.3303 73.0744 70.3516 72.3941C70.3516 71.8511 70.1598 71.5955 69.6164 71.6594C69.0091 71.7233 68.7214 71.4358 68.7534 70.8288C68.7534 70.7448 68.7568 70.6574 68.7603 70.5688C68.7675 70.3878 68.7748 70.2017 68.7534 70.0302C68.7214 69.3593 68.9771 68.976 69.6484 69.0399C70.1917 69.0718 70.3196 68.8482 70.3516 68.3371C70.4145 66.3245 70.4464 66.324 72.3682 66.294L72.4611 66.2925C73.1963 66.2925 73.4201 66.5801 73.3561 67.219C73.3347 67.3904 73.342 67.5763 73.3492 67.7572C73.3527 67.8458 73.3561 67.9336 73.3561 68.0176C73.2922 68.6565 73.4201 69.1037 74.2511 69.0399C74.7306 69.0079 74.9863 69.2954 74.9543 69.7746C74.9223 70.0621 74.9223 70.3496 74.9543 70.6371C75.0182 71.3399 74.7945 71.7233 74.0274 71.6274C73.3881 71.5635 73.3561 72.0108 73.3561 72.458C73.3561 73.0969 73.3526 73.7358 73.349 74.3747C73.3419 75.6526 73.3348 76.9304 73.3561 78.2082C73.3561 78.943 73.1004 79.1985 72.3972 79.1985C72.1486 79.1952 71.9297 79.195 71.7371 79.1948C70.9881 79.1939 70.6365 79.1935 70.4747 79.0181C70.3317 78.863 70.3371 78.5712 70.3471 78.0214C70.3513 77.7911 70.3563 77.5156 70.3516 77.1859V75.4289C70.3516 75.0878 70.348 74.7502 70.3444 74.4137V74.4115Z" fill="#5CBD36"/>
<path d="M10.8996 66.612V77.2179C10.8996 77.3112 10.8994 77.4002 10.8992 77.485C10.8974 78.367 10.8965 78.7979 11.1114 79.0071C11.3165 79.2068 11.7183 79.2045 12.5037 79.2C12.6301 79.1993 12.7663 79.1985 12.9133 79.1985C13.9042 79.1666 14.032 79.0707 14.032 78.0804V67.4745C14.0271 67.2023 14.0334 66.9662 14.0388 66.762C14.0689 65.6242 14.0729 65.4717 11.9863 65.5259C11.0914 65.5578 10.8996 65.7176 10.8996 66.612Z" fill="#5CBD36"/>
<path d="M79.582 75.4265C79.5748 76.3671 79.5677 77.3125 79.589 78.272C79.589 78.9429 79.3973 79.2304 78.6941 79.2304C78.4421 79.2272 78.2198 79.2269 78.0237 79.2266C77.2372 79.2255 76.8718 79.2249 76.7086 79.043C76.5669 78.8852 76.5775 78.5907 76.5973 78.0408C76.606 77.7983 76.6164 77.5061 76.6164 77.154C76.6027 76.1134 76.6067 75.0729 76.6106 74.0324C76.6158 72.645 76.621 71.2577 76.5845 69.8704C76.5845 69.1357 76.8721 68.8801 77.5753 68.8801L77.6862 68.8801C78.7952 68.8798 79.2728 68.8797 79.4722 69.1152C79.6229 69.2932 79.6146 69.606 79.6001 70.1553C79.5949 70.3489 79.589 70.5719 79.589 70.8288V74.0233C79.589 74.4905 79.5855 74.9582 79.582 75.4265Z" fill="#5CBD36"/>
<path fill-rule="evenodd" clip-rule="evenodd" d="M48.9681 55.1059C64.3745 55.1059 76.5845 42.5833 76.5206 27.6009C76.6485 12.4268 64.0229 0 48.9681 0C34.0092 0.0319454 21.4476 12.2032 21.4476 27.4731C21.4156 42.743 33.7535 55.1059 48.9681 55.1059ZM63.5754 38.4304H59.2603C58.8827 38.4304 58.5072 38.4324 58.1336 38.4344C57.021 38.4404 55.9262 38.4463 54.8494 38.3984C54.4339 38.3984 54.2101 38.4623 54.0503 38.9415C53.3151 41.1777 51.3654 42.5513 49.1279 42.5513C46.8905 42.5513 45.0046 41.1457 44.2695 38.8776C44.1097 38.3984 43.79 38.3984 43.4065 38.3984C40.4658 38.4304 37.5572 38.4304 34.6165 38.3984C34.2649 38.3984 33.8494 38.2706 33.6576 38.047C33.5298 37.9192 33.7535 37.4401 33.9133 37.1525C34.2144 36.6657 34.5155 36.1814 34.816 35.6981C35.5999 34.4372 36.3791 33.1837 37.1416 31.9135C37.3654 31.5302 37.4932 31.019 37.4932 30.5718C37.5412 28.8952 37.5352 27.2006 37.5292 25.5015C37.5272 24.9344 37.5252 24.3669 37.5252 23.7994C37.5252 19.0395 40.7215 14.7268 45.2604 13.2893C45.9636 13.0657 46.6987 12.906 47.4339 12.8101C47.9453 12.7462 47.9773 12.4907 47.9453 12.1073C47.8494 11.2767 48.2649 11.0531 49.032 11.0531C50.1508 11.0531 50.3425 11.1809 50.3745 12.0434C50.3745 12.5546 50.5343 12.7143 51.0777 12.8101C55.3288 13.481 59.1645 16.5477 60.2832 20.8284C60.633 22.1315 60.698 23.5295 60.7617 24.8965L60.7626 24.9174C60.8266 26.6744 60.8266 28.4634 60.7626 30.2523C60.7307 31.0829 60.9544 31.7857 61.4019 32.4885C62.3928 33.9899 63.3517 35.5233 64.2786 37.0887C64.4384 37.4081 64.5343 37.8234 64.4704 38.1748C64.4384 38.3345 63.8951 38.4304 63.5754 38.4304ZM61.4339 36.4178H36.886C36.916 36.3503 36.9442 36.2846 36.9715 36.2211C37.0606 36.0139 37.1397 35.8297 37.2376 35.683C37.3087 35.5676 37.3773 35.4522 37.4455 35.3374C37.6226 35.0395 37.7971 34.7458 38.0047 34.4691C39.1874 32.9038 39.6988 31.2107 39.539 29.1981C39.4283 27.9817 39.4555 26.7654 39.4828 25.549C39.4949 25.0084 39.507 24.4677 39.507 23.9271C39.507 19.1353 43.1828 15.1741 47.9773 14.7588C51.8769 14.4393 55.0412 15.6852 57.2787 18.9756C58.1417 20.2534 58.6531 21.659 58.6531 23.2563C58.6531 24.0774 58.6567 24.895 58.6602 25.7113C58.6673 27.3402 58.6744 28.9653 58.6531 30.6037C58.6531 31.5621 58.8769 32.3607 59.3883 33.1594C59.8714 33.8397 60.3093 34.5654 60.7744 35.3362C60.9863 35.6873 61.2039 36.048 61.4339 36.4178ZM51.9088 38.5262C51.685 39.6123 50.5663 40.5068 49.2238 40.6026C48.0412 40.6985 46.7626 39.8359 46.2512 38.5262H51.9088Z" fill="#5CBD36"/>
</svg>
