<svg width="16" height="18" viewBox="0 0 16 18" fill="none" xmlns="http://www.w3.org/2000/svg">
<path d="M15.292 4.08055C15.6773 4.47774 16 5.27214 16 5.84113V16.9692C16 17.5382 15.552 18 15 18H1C0.448 18 0 17.5382 0 16.9692V1.03079C0 0.461793 0.448 0 1 0H10.3333C10.8853 0 11.656 0.332601 12.0413 0.729798L15.292 4.08055ZM10.6673 1.46028V5.49754H14.584C14.5213 5.31474 14.428 5.13264 14.3547 5.05705L11.094 1.69599C11.0213 1.62109 10.8447 1.52488 10.6673 1.46028ZM14.6673 16.6256V6.87192H10.334C9.782 6.87192 9.334 6.41013 9.334 5.84113V1.37438H1.334V16.6256H14.6673ZM4.00067 9.83128C4.00067 9.63818 4.14667 9.48768 4.334 9.48768H11.6673C11.8547 9.48768 12.0007 9.63818 12.0007 9.83128V10.5185C12.0007 10.7116 11.8547 10.8621 11.6673 10.8621H4.334C4.14667 10.8621 4.00067 10.7116 4.00067 10.5185V9.83128ZM11.6673 12.2365C11.8547 12.2365 12.0007 12.3869 12.0007 12.58V13.2672C12.0007 13.4603 11.8547 13.6108 11.6673 13.6108H4.334C4.14667 13.6108 4.00067 13.4603 4.00067 13.2672V12.58C4.00067 12.3869 4.14667 12.2365 4.334 12.2365H11.6673Z" fill="#979797"/>
</svg>
