<svg width="18" height="17" viewBox="0 0 18 17" fill="none" xmlns="http://www.w3.org/2000/svg">
<path fill-rule="evenodd" clip-rule="evenodd" d="M5 0C2.23858 0 0 2.23858 0 5V9.4C0 12.1614 2.23858 14.4 5 14.4H9.30714C11.628 16.8662 15.7435 17.344 14.0192 16.0955C13.2579 15.5442 12.784 14.947 12.4999 14.4H13C15.7614 14.4 18 12.1614 18 9.4V5C18 2.23858 15.7614 0 13 0H5ZM4.8 5.4C4.8 5.73137 4.53137 6 4.2 6C3.86863 6 3.6 5.73137 3.6 5.4C3.6 5.06863 3.86863 4.8 4.2 4.8C4.53137 4.8 4.8 5.06863 4.8 5.4ZM14.4 4.8H5.99999V6H14.4V4.8ZM14.4 8.4H5.99999V9.6H14.4V8.4ZM4.20002 9.6C4.53139 9.6 4.80002 9.33137 4.80002 9C4.80002 8.66863 4.53139 8.4 4.20002 8.4C3.86865 8.4 3.60002 8.66863 3.60002 9C3.60002 9.33137 3.86865 9.6 4.20002 9.6Z" fill="#979797"/>
</svg>
