<svg width="15" height="16" viewBox="0 0 15 16" fill="none" xmlns="http://www.w3.org/2000/svg">
<path d="M9.35606 11.0436C8.40044 11.7242 7.23169 12.125 5.96875 12.125C2.74163 12.125 0.125 9.50838 0.125 6.28125C0.125 3.05413 2.74163 0.4375 5.96875 0.4375C9.19588 0.4375 11.8125 3.05413 11.8125 6.28125C11.8125 7.54419 11.4117 8.71294 10.7311 9.66856L14.5708 13.5082C14.9489 13.8864 14.9461 14.4921 14.5708 14.8668L14.5549 14.8826C14.1809 15.2566 13.5711 15.2579 13.1964 14.8826L9.35675 11.0429L9.35606 11.0436ZM5.96875 10.75C8.43688 10.75 10.4375 8.74938 10.4375 6.28125C10.4375 3.81313 8.43688 1.8125 5.96875 1.8125C3.50063 1.8125 1.5 3.81313 1.5 6.28125C1.5 8.74938 3.50063 10.75 5.96875 10.75Z" fill="black"/>
</svg>
