<svg width="18" height="18" viewBox="0 0 18 18" fill="none" xmlns="http://www.w3.org/2000/svg">
<path d="M12 9C12 8.172 11.6632 7.4205 11.121 6.879C10.5787 6.3375 9.828 6 9 6C8.172 6 7.4205 6.33675 6.879 6.879C6.3375 7.42125 6 8.172 6 9C6 9.828 6.33675 10.5795 6.879 11.121C7.42125 11.6625 8.172 12 9 12C9.828 12 10.5795 11.6632 11.121 11.121C11.6625 10.5787 12 9.828 12 9ZM10.5 9C10.5 9.41475 10.3327 9.78825 10.0605 10.0605C9.78825 10.3327 9.41475 10.5 9 10.5C8.58525 10.5 8.21175 10.3327 7.9395 10.0605C7.66725 9.78825 7.5 9.41475 7.5 9C7.5 8.58525 7.66725 8.21175 7.9395 7.9395C8.21175 7.66725 8.58525 7.5 9 7.5C9.41475 7.5 9.78825 7.66725 10.0605 7.9395C10.3327 8.21175 10.5 8.58525 10.5 9ZM15.2362 11.553C15.2708 11.4742 15.3202 11.4097 15.3802 11.3603C15.4642 11.2913 15.5685 11.2507 15.6825 11.25H15.75C16.371 11.25 16.935 10.9973 17.3407 10.5907C17.7465 10.1842 18 9.621 18 9C18 8.379 17.7472 7.815 17.3407 7.40925C16.9342 7.0035 16.371 6.75 15.75 6.75H15.6307C15.5482 6.74925 15.4695 6.729 15.3998 6.693C15.3045 6.6435 15.2272 6.564 15.1807 6.459C15.1785 6.43725 15.1777 6.41475 15.1777 6.39225C15.1597 6.351 15.1477 6.309 15.141 6.26625C15.156 6.01575 15.1988 5.92575 15.267 5.856L15.3135 5.8095C15.7522 5.37 15.972 4.7925 15.9713 4.218C15.9705 3.6435 15.7507 3.066 15.3105 2.6265C14.871 2.18775 14.2935 1.968 13.719 1.96875C13.1445 1.9695 12.567 2.18925 12.129 2.628L12.0945 2.6625C12.0322 2.7225 11.9573 2.7645 11.8785 2.787C11.7735 2.81625 11.6602 2.811 11.55 2.76225C11.4742 2.72925 11.4097 2.67975 11.3603 2.61975C11.2913 2.53575 11.2507 2.4315 11.25 2.3175V2.25C11.25 1.629 10.9973 1.065 10.5907 0.65925C10.1842 0.2535 9.621 0 9 0C8.379 0 7.815 0.25275 7.40925 0.65925C7.0035 1.06575 6.75 1.629 6.75 2.25V2.36925C6.74925 2.45175 6.729 2.5305 6.693 2.60025C6.6435 2.6955 6.564 2.77275 6.459 2.81925C6.43725 2.8215 6.41475 2.82225 6.39225 2.82225C6.351 2.84025 6.309 2.85225 6.26625 2.859C6.015 2.84325 5.925 2.8005 5.85525 2.73225L5.80875 2.68575C5.36925 2.247 4.7925 2.02725 4.21725 2.02725C3.642 2.02725 3.066 2.24775 2.62575 2.68875C2.187 3.12825 1.96725 3.705 1.96725 4.28025C1.96725 4.8555 2.18775 5.43225 2.6265 5.87025L2.6625 5.9055C2.7225 5.96775 2.7645 6.04275 2.787 6.1215C2.81625 6.2265 2.811 6.33975 2.76375 6.447C2.75925 6.459 2.754 6.4725 2.748 6.486C2.71725 6.56775 2.667 6.63825 2.60475 6.69225C2.52225 6.7635 2.41725 6.807 2.3175 6.80925H2.25C1.629 6.80925 1.065 7.062 0.65925 7.4685C0.2535 7.875 0 8.439 0 9.06C0 9.681 0.25275 10.245 0.65925 10.6508C1.06575 11.0565 1.629 11.31 2.25 11.31H2.36925C2.45175 11.3108 2.5305 11.331 2.60025 11.367C2.69625 11.4172 2.775 11.4975 2.82225 11.6077C2.84025 11.649 2.85225 11.691 2.859 11.7338C2.844 11.9843 2.80125 12.0742 2.733 12.144L2.6865 12.1905C2.24775 12.63 2.028 13.2075 2.02875 13.782C2.0295 14.3565 2.24925 14.934 2.6895 15.3735C3.129 15.8122 3.7065 16.032 4.281 16.0312C4.8555 16.0305 5.433 15.8108 5.871 15.372L5.90625 15.336C5.9685 15.276 6.0435 15.234 6.12225 15.2115C6.22725 15.1823 6.3405 15.1875 6.44775 15.2347C6.45975 15.2393 6.47325 15.2445 6.48675 15.2505C6.5685 15.2812 6.639 15.3315 6.693 15.3937C6.76425 15.4762 6.80775 15.5813 6.81 15.681V15.75C6.81 16.371 7.06275 16.935 7.46925 17.3407C7.87575 17.7465 8.439 18 9.06 18C9.681 18 10.245 17.7472 10.6508 17.3407C11.0565 16.9342 11.31 16.371 11.31 15.75V15.6307C11.3108 15.5482 11.331 15.4695 11.367 15.3998C11.4172 15.3038 11.4975 15.225 11.6077 15.1777C11.649 15.1597 11.691 15.1477 11.7338 15.141C11.9843 15.156 12.0742 15.1988 12.144 15.267L12.1905 15.3135C12.63 15.7522 13.2075 15.972 13.782 15.9713C14.3565 15.9705 14.934 15.7507 15.3735 15.3105C15.8122 14.871 16.032 14.2935 16.0312 13.719C16.0305 13.1445 15.8108 12.567 15.372 12.129L15.336 12.0938C15.276 12.0315 15.234 11.9565 15.2115 11.8778C15.1823 11.7727 15.1875 11.6595 15.2347 11.5522L15.2362 11.553ZM13.797 6.9765C13.788 6.82575 13.7685 6.75375 13.74 6.69V6.75C13.74 6.78225 13.7422 6.813 13.746 6.84375C13.7617 6.88875 13.7782 6.933 13.797 6.9765C13.8 7.044 13.8007 7.04475 13.8007 7.0455C13.9875 7.48125 14.3137 7.818 14.7067 8.02275C14.985 8.1675 15.2955 8.24625 15.615 8.25H15.75C15.957 8.25 16.1438 8.33325 16.2803 8.46975C16.4167 8.60625 16.5 8.793 16.5 9C16.5 9.207 16.4167 9.39375 16.2803 9.53025C16.1438 9.66675 15.957 9.75 15.75 9.75H15.6825C15.2048 9.75225 14.7675 9.921 14.4263 10.2022C14.184 10.4017 13.9905 10.6575 13.8638 10.947C13.671 11.3835 13.6477 11.8545 13.7685 12.2835C13.8577 12.6007 14.0243 12.894 14.2575 13.1355L14.3115 13.1903C14.4585 13.3372 14.532 13.5278 14.532 13.7205C14.532 13.9133 14.4592 14.1045 14.313 14.2507C14.1652 14.3985 13.9747 14.472 13.7812 14.472C13.5878 14.472 13.3972 14.3993 13.251 14.253L13.2052 14.2073C12.858 13.8675 12.4253 13.6807 11.9813 13.6432C11.6535 13.6155 11.3197 13.6687 11.0115 13.8022C10.578 13.9882 10.2413 14.3145 10.0365 14.7067C9.89175 14.985 9.813 15.2955 9.80925 15.615V15.7507C9.80925 15.9577 9.726 16.1445 9.5895 16.281C9.453 16.4175 9.267 16.5 9.06 16.5C8.853 16.5 8.66625 16.4167 8.52975 16.2803C8.39325 16.1438 8.31 15.957 8.31 15.75V15.6825C8.29875 15.1875 8.11875 14.751 7.827 14.4135C7.614 14.1675 7.3425 13.9748 7.0335 13.8555C6.60225 13.6703 6.13875 13.65 5.7165 13.7685C5.39925 13.8577 5.106 14.0243 4.8645 14.2575L4.80975 14.3115C4.66275 14.4585 4.47225 14.532 4.2795 14.532C4.08675 14.532 3.8955 14.4592 3.74925 14.313C3.6015 14.1652 3.528 13.9747 3.528 13.7812C3.528 13.5878 3.60075 13.3972 3.747 13.251L3.79275 13.2052C4.1325 12.858 4.31925 12.4253 4.35675 11.9813C4.3845 11.6535 4.33125 11.3197 4.19775 11.0115C4.01175 10.578 3.6855 10.2413 3.29325 10.0365C3.015 9.89175 2.7045 9.813 2.385 9.80925L2.25 9.81C2.043 9.81 1.85625 9.72675 1.71975 9.59025C1.58325 9.45375 1.5 9.267 1.5 9.06C1.5 8.853 1.58325 8.66625 1.71975 8.52975C1.85625 8.39325 2.043 8.31 2.25 8.31H2.3175C2.8125 8.29875 3.249 8.11875 3.5865 7.827C3.8325 7.614 4.02525 7.3425 4.1445 7.0335C4.32975 6.60225 4.35 6.13875 4.2315 5.7165C4.14225 5.39925 3.97575 5.106 3.7425 4.8645L3.68775 4.80975C3.54075 4.66275 3.46725 4.47225 3.46725 4.2795C3.46725 4.08675 3.54 3.8955 3.68625 3.74925C3.834 3.6015 4.0245 3.528 4.218 3.528C4.4115 3.528 4.602 3.60075 4.74825 3.747L4.794 3.79275C5.14125 4.1325 5.574 4.31925 6.018 4.35675C6.2955 4.38075 6.57675 4.34625 6.84375 4.254C6.91575 4.245 6.98325 4.227 7.04325 4.2C7.02 4.20075 6.9975 4.20225 6.9765 4.203C6.82575 4.212 6.75375 4.2315 6.69 4.26H6.75C6.78225 4.26 6.813 4.25775 6.84375 4.254C6.88875 4.23825 6.933 4.22175 6.9765 4.203C7.044 4.2 7.04475 4.19925 7.0455 4.19925C7.48125 4.0125 7.818 3.68625 8.02275 3.29325C8.1675 3.01575 8.24625 2.7045 8.25 2.38575V2.25C8.25 2.043 8.33325 1.85625 8.46975 1.71975C8.60625 1.58325 8.793 1.5 9 1.5C9.207 1.5 9.39375 1.58325 9.53025 1.71975C9.66675 1.85625 9.75 2.043 9.75 2.25V2.3175C9.75225 2.79525 9.921 3.2325 10.2022 3.57375C10.4017 3.816 10.6575 4.0095 10.9493 4.137C11.3827 4.32825 11.8538 4.3515 12.2828 4.23075C12.6 4.1415 12.8933 3.975 13.1348 3.74175L13.1895 3.68775C13.3365 3.54075 13.527 3.46725 13.7197 3.46725C13.9125 3.46725 14.1038 3.54 14.25 3.68625C14.3977 3.834 14.4713 4.0245 14.4713 4.218C14.4713 4.4115 14.3985 4.602 14.2523 4.74825L14.2065 4.794C13.8667 5.14125 13.68 5.574 13.6425 6.018C13.6185 6.2955 13.653 6.57675 13.7452 6.84375C13.7542 6.915 13.773 6.9825 13.7992 7.04325C13.7985 7.01925 13.7978 6.99675 13.7963 6.9765H13.797Z" fill="#979797"/>
</svg>
