<svg width="11" height="12" viewBox="0 0 11 12" fill="none" xmlns="http://www.w3.org/2000/svg">
<path d="M8.25 7.5C7.72013 7.5 7.23312 7.68326 6.84867 7.98973L4.44666 6.48846C4.51779 6.1667 4.51779 5.83328 4.44666 5.51152L6.84867 4.01025C7.23312 4.31674 7.72013 4.5 8.25 4.5C9.49263 4.5 10.5 3.49263 10.5 2.25C10.5 1.00737 9.49263 0 8.25 0C7.00737 0 6 1.00737 6 2.25C6 2.41777 6.01852 2.58117 6.05334 2.73846L3.65133 4.23973C3.26688 3.93326 2.77988 3.75 2.25 3.75C1.00737 3.75 0 4.75737 0 6C0 7.24263 1.00737 8.25 2.25 8.25C2.77988 8.25 3.26688 8.06674 3.65133 7.76027L6.05334 9.26154C6.01784 9.42193 5.99995 9.58572 6 9.75C6 10.9926 7.00737 12 8.25 12C9.49263 12 10.5 10.9926 10.5 9.75C10.5 8.50737 9.49263 7.5 8.25 7.5Z" fill="white"/>
</svg>
