<svg width="22" height="21" viewBox="0 0 22 21" fill="none" xmlns="http://www.w3.org/2000/svg">
<path d="M2.72566 0.777777C2.72566 0.348223 3.07433 0 3.50442 0H18.3009C18.731 0 19.0796 0.348223 19.0796 0.777777C19.0796 1.20733 18.731 1.55555 18.3009 1.55555H3.50442C3.07433 1.55555 2.72566 1.20733 2.72566 0.777777Z" fill="white"/>
<path d="M3.73208 2.33333C3.10888 2.33333 2.53257 2.66393 2.21856 3.20156L0.187892 6.6783C0.0648394 6.88898 0 7.12852 0 7.37242C0 8.13323 0.617539 8.75 1.37931 8.75H20.6207C21.3825 8.75 22 8.13323 22 7.37242C22 7.12852 21.9352 6.88898 21.8121 6.6783L19.7814 3.20156C19.4674 2.66393 18.8911 2.33333 18.2679 2.33333H3.73208Z" fill="white"/>
<path fill-rule="evenodd" clip-rule="evenodd" d="M17.9115 9.72222H3.89381L2.33628 9.72223V19.25C2.33628 20.2165 3.12078 21 4.0885 21H17.7168C18.6845 21 19.469 20.2165 19.469 19.25V9.72223L17.9115 9.72222ZM17.9115 9.72222H3.89381V17.6944C3.89381 18.6609 4.6783 19.4444 5.64602 19.4444H16.1593C17.127 19.4444 17.9115 18.6609 17.9115 17.6944V9.72222Z" fill="white"/>
<path d="M12.6265 11.4291C12.6265 11.0275 12.8462 10.6427 13.2855 10.2745C13.7248 9.9063 14.2285 9.72222 14.7965 9.72222V18.2778H13.7217V14.8635H12.6265V11.4291ZM10.4769 12.7145V9.72222H11.3289V12.7145C11.3289 13.1697 11.1734 13.5613 10.8624 13.8892C10.5515 14.2171 10.1661 14.3945 9.70626 14.4214V18.2773H8.63145V14.4214C8.17164 14.3945 7.78625 14.2171 7.47529 13.8892C7.16433 13.5613 7.00885 13.1697 7.00885 12.7145V9.72222H7.88116V12.7145H8.73313V9.72222H9.60544V12.7145H10.4778H10.4769Z" fill="white"/>
</svg>
