<svg width="10" height="10" viewBox="0 0 10 10" fill="none" xmlns="http://www.w3.org/2000/svg">
<path d="M4.3239 2.82825C4.15632 3.83373 3.90988 4.71105 3.59444 5.47995C3.1607 4.99692 2.51996 4.40547 1.96793 3.94216C2.14537 3.58728 2.30309 3.2127 2.4411 2.82825H4.3239ZM4.53091 2.13822H2.67768C2.81569 1.69462 2.92412 1.24117 3.03255 0.768008L2.31295 0.630001C1.95807 2.34523 1.33705 3.97173 0.440002 4.98707C0.597724 5.08564 0.923025 5.32222 1.04132 5.45037C1.25818 5.17436 1.46519 4.87863 1.66235 4.53362C2.24395 5.06593 2.88469 5.70667 3.25928 6.18969C2.55939 7.4909 1.6032 8.40766 0.459718 8.99911C0.647012 9.12726 0.942741 9.41313 1.06103 9.60043C3.15085 8.44709 4.66892 6.13055 5.18151 2.26636L4.67878 2.09879L4.53091 2.13822ZM6.77845 3.81401V0.639859H6.02927V9.63H6.77845V4.27732C7.5572 4.93778 8.45424 5.76582 8.89783 6.3277L9.47943 5.82496C8.95698 5.20393 7.89236 4.26746 7.0446 3.59714L6.77845 3.81401Z" fill="white"/>
</svg>
